<svg id="Layer_1" data-name="Layer 1" xmlns="http://www.w3.org/2000/svg" xmlns:xlink="http://www.w3.org/1999/xlink" viewBox="0 0 2327 498"><defs><style>.cls-1,.cls-3,.cls-6{fill:#ffa400;}.cls-1,.cls-2,.cls-4{clip-rule:evenodd;}.cls-19,.cls-2,.cls-21{fill:#131e29;}.cls-39,.cls-4,.cls-5{fill:#fff;}.cls-19,.cls-39,.cls-6{fill-rule:evenodd;}.cls-7{clip-path:url(#clip-path);}.cls-8{clip-path:url(#clip-path-2);}.cls-9{clip-path:url(#clip-path-3);}.cls-10{clip-path:url(#clip-path-4);}.cls-11{clip-path:url(#clip-path-5);}.cls-12{clip-path:url(#clip-path-6);}.cls-13{clip-path:url(#clip-path-7);}.cls-14{clip-path:url(#clip-path-8);}.cls-15{clip-path:url(#clip-path-9);}.cls-16{clip-path:url(#clip-path-10);}.cls-17{clip-path:url(#clip-path-11);}.cls-18{clip-path:url(#clip-path-12);}.cls-20{clip-path:url(#clip-path-13);}.cls-22{clip-path:url(#clip-path-14);}.cls-23{clip-path:url(#clip-path-15);}.cls-24{clip-path:url(#clip-path-16);}.cls-25{clip-path:url(#clip-path-17);}.cls-26{clip-path:url(#clip-path-18);}.cls-27{clip-path:url(#clip-path-19);}.cls-28{clip-path:url(#clip-path-20);}.cls-29{clip-path:url(#clip-path-21);}.cls-30{clip-path:url(#clip-path-22);}.cls-31{clip-path:url(#clip-path-23);}.cls-32{clip-path:url(#clip-path-24);}.cls-33{clip-path:url(#clip-path-26);}.cls-34{clip-path:url(#clip-path-27);}.cls-35{clip-path:url(#clip-path-28);}.cls-36{clip-path:url(#clip-path-29);}.cls-37{clip-path:url(#clip-path-30);}.cls-38{clip-path:url(#clip-path-31);}.cls-40{clip-path:url(#clip-path-32);}.cls-41{clip-path:url(#clip-path-33);}.cls-42{clip-path:url(#clip-path-34);}</style><clipPath id="clip-path"><path class="cls-1" d="M-3960.48,1156.11c2.17-1.86,3.53-3.08,4.13-3.61q11.19-10.13,16.43-19.65a67.61,67.61,0,0,0,7.17-22.82L-3912,969.94a85.08,85.08,0,0,0,1.37-15c0-8.53-2.44-17.69-7.24-27.46-1.09-2-1.79-3.29-2.19-3.92H-3798a29.83,29.83,0,0,1,5,.33q38.05,2.5,57.08,16.16t19,37.28q0,13.6-6.62,31.1a78.51,78.51,0,0,1-17.34,27,80.7,80.7,0,0,1-27.38,18.12,89.67,89.67,0,0,1-34.34,6.48q-26.82,0-41.71-8.11a52.42,52.42,0,0,0,6,.62q18,0,33.94-16.93a49.69,49.69,0,0,0,10.25-14.66,58.88,58.88,0,0,0,4.49-18.13,71.48,71.48,0,0,0,.62-10.66q-.46-16.61-9-24.14c-5.7-5-15.12-7.53-28.15-7.53-1.87,0-4.78.22-8.72.62l-4.27.31-2.93.29L-3863.9,1110a102.64,102.64,0,0,0-.89,12.83,53,53,0,0,0,2.66,15.32,52.24,52.24,0,0,0,8.28,14.36c.47.65.93,1.18,1.35,1.68a15.15,15.15,0,0,1,1.56,1.92Z"/></clipPath><clipPath id="clip-path-2"><path class="cls-1" d="M-3640.23,1156.21h-94.89a18.44,18.44,0,0,0,4.84-3.41c5.59-4.31,9.41-8.13,11.42-11.52s3.68-8.52,5.08-15.5c.38-1.44.73-2.89,1-4.27l12.36-78.12c1.37-9.37,2.06-15.79,2.06-19.21q0-8.53-2.86-13.65c-1.9-3.46-5.19-6.73-9.77-9.87,6.34.48,13.48.71,21.32.71A184.86,184.86,0,0,0-3660,999a177,177,0,0,0,29.48-7.42l-3.67,23.54a50.62,50.62,0,0,1,19.62-15.23,63.42,63.42,0,0,1,26.12-5.36,72.4,72.4,0,0,1,12,1c.72.13,1.3.23,1.78.34a19.68,19.68,0,0,1,1.91.54l-7.8,50a35.4,35.4,0,0,0-7.64-5.14c-7-3.86-13.78-5.76-20.45-5.76q-12.63,0-22.8,9.31a38.11,38.11,0,0,0-8.32,11.93c-1.61,3.93-3,9.9-4.3,18l-7.37,46.73-1.48,9.72a30.55,30.55,0,0,0,8.39,21.63c2.53,2.09,4,3.22,4.27,3.43"/></clipPath><clipPath id="clip-path-3"><path class="cls-1" d="M-3488,1156.11h-94a19,19,0,0,0,4.89-3.38c9.1-7.17,14.23-14.37,15.31-21.65l14.86-93.76c.81-6.48,1.18-10.59,1.18-12.37a28.55,28.55,0,0,0-1.74-10.75,29.46,29.46,0,0,0-5.75-8.53c-2.56-2.34-5.82-6.64-8.2-7.94,6.58.79,14.12,3,22.88,3.68a141.37,141.37,0,0,0,30.63-1c12.14-1.75,19.83-3.43,30.35-9l-21.92,139.67a37.53,37.53,0,0,0,1.71,12.23,25,25,0,0,0,5.78,9.09,26.26,26.26,0,0,0,2.72,2.45c.83.63,1.26,1,1.26,1.23m-39.68-178.53a33.88,33.88,0,0,1-7.65-21.76q.47-14.73,11.15-24.17a31.32,31.32,0,0,1,22.06-8.66q14.05,0,24.36,11.2a32.12,32.12,0,0,1,8.65,22.21q0,15.17-11.73,25.61-10.13,8.25-21.28,8.24-15.29,0-25.57-12.66"/></clipPath><clipPath id="clip-path-4"><path class="cls-1" d="M-3321.89,1000c1,.28,2.36.72,4,1.33s3.23,1.14,4.61,1.6l-4.86,31.77c-6.53-5.71-15.06-9.71-25.58-12.07a80.07,80.07,0,0,0-17.37-1.94q-18.83,0-31.32,10.06t-17.72,29.42a55.12,55.12,0,0,0-1.69,13.18,40.67,40.67,0,0,0,11.46,28.92q11.45,12.13,31.75,15.6a50.67,50.67,0,0,0,8.92.57q12.19,0,30.62-4.65a190.39,190.39,0,0,0,30.35-10.19l-36.38,44.58c-3.74.81-7.67,1.66-11.75,2.51a218.12,218.12,0,0,1-43.55,4.88,160.81,160.81,0,0,1-20.43-1.14,70.6,70.6,0,0,1-32-11.44,65.56,65.56,0,0,1-21.64-23.78,67,67,0,0,1-7.68-32.05,85.69,85.69,0,0,1,6-30.93,92.74,92.74,0,0,1,22.17-33.15,101.73,101.73,0,0,1,35.09-22,122.23,122.23,0,0,1,43.66-7.69,145.24,145.24,0,0,1,43.25,6.56"/></clipPath><clipPath id="clip-path-5"><path class="cls-1" d="M-3111.54,1077.57a54.94,54.94,0,0,1-2,10.67h-117.52c.29,6.73,4.22,13.74,11.82,21.12q10.81,10.8,30.52,10.77,13.06,0,34-4.38,22.37-4.7,36.3-11.76l-34.47,44.85-6.88.92q-27.42,5.49-42.08,5.92-22.62,0-39.44-4.44c-11.19-3-20.47-7.34-27.78-13.08a54.18,54.18,0,0,1-16.47-21.48c-3.64-8.53-5.62-18.49-5.88-29.84a80.25,80.25,0,0,1,6.15-30,97.82,97.82,0,0,1,18-28.58q6.3-6.75,12.09-11.85,28.92-22.53,68.69-22.94a127,127,0,0,1,14.49.89q30.77,3.37,46.29,19.47t15.52,44.78a164.15,164.15,0,0,1-1.37,19m-117-19.87h62.72a34.63,34.63,0,0,0,.58-5.27q0-14.9-6.7-22.59c-4.46-5.11-10.53-7.69-18.11-7.69a35.54,35.54,0,0,0-7.2.57q-15.64,2.85-25.8,19.74a55.61,55.61,0,0,0-5.49,15.24"/></clipPath><clipPath id="clip-path-6"><path class="cls-1" d="M-2957.47,1156.11h-165l109-125.13q-15.42,0-41,4c-12.65,2-23.2,4.38-31.63,7.24l-2.05.88-2.94,1.19,29.1-43.63h147.68l-108.24,124.84,2.76.3,4.88.29h12c3.59,0,7.6,0,12.08-.08s7.75-.1,9.93-.21q21.29-1.59,32.65-4.48a86,86,0,0,0,21.28-8.44Z"/></clipPath><clipPath id="clip-path-7"><path class="cls-1" d="M-2784,995.33q21.06,1.28,37.12,3.87a194.25,194.25,0,0,1,29,6.75l-.83.86-2,1.57a38.21,38.21,0,0,0-10.45,11,43.49,43.49,0,0,0-5.08,14.14l-10.77,69c0,5,.92,8.34,2.87,10.16s5.48,2.71,10.61,2.71q2.14,0,9-.57a6.62,6.62,0,0,0,2-.28l-31.44,37.65a72.36,72.36,0,0,1-11.68,3,72.57,72.57,0,0,1-12.8,1.43c-6.84,0-12.7-1.27-17.56-3.8a26.74,26.74,0,0,1-11.19-10.35,29.85,29.85,0,0,1-3.84-15.17,51.3,51.3,0,0,1,.57-6.15l13.93-88.07c-.55-.19-1.17-.44-1.84-.71a13.93,13.93,0,0,0-1.55-.6,54.37,54.37,0,0,0-16-2.28,40,40,0,0,0-19.76,5q-9,5-16,15.15a50.23,50.23,0,0,0-6.57,15.54,100.77,100.77,0,0,0-2.64,21.14v7.72c.27,7.91,3,14.44,8.13,19.54a25.66,25.66,0,0,0,18.73,7.64,31.35,31.35,0,0,0,9.91-1.43,22.22,22.22,0,0,0,5.53-2l2.53-1.27,2-1.15-30.72,36.27-2,.57-3.53.86a84.93,84.93,0,0,1-11.58,1.82c-1.91.2-4.69.29-8.39.29q-16.94,0-30-7.06a48.5,48.5,0,0,1-20.07-20q-7-12.94-7-29.78a98.13,98.13,0,0,1,2.25-19.29q4.61-20.29,14.38-35.6a91.33,91.33,0,0,1,25-26q15.16-10.61,36.63-16.4t48.88-6.22c7.11,0,12.53.15,16.19.45"/></clipPath><clipPath id="clip-path-8"><path class="cls-1" d="M-3896.13,437c2.3-2,3.74-3.26,4.38-3.83q11.87-10.75,17.43-20.85t7.6-24.21l22-148.61a90.26,90.26,0,0,0,1.45-15.9c0-9-2.59-18.76-7.68-29.13-1.16-2.13-1.9-3.49-2.33-4.16h129.54a31.65,31.65,0,0,1,5.31.35q40.37,2.65,60.55,17.14t20.17,39.54q0,14.43-7,33A83.29,83.29,0,0,1-3663.1,309a85.62,85.62,0,0,1-29.05,19.23,95.13,95.13,0,0,1-36.44,6.87q-28.46,0-44.25-8.6a55.61,55.61,0,0,0,6.37.66q19.11,0,36-18a52.72,52.72,0,0,0,10.88-15.55,62.46,62.46,0,0,0,4.76-19.24,75.83,75.83,0,0,0,.66-11.31q-.49-17.62-9.57-25.61c-6.05-5.3-16-8-29.87-8-2,0-5.07.24-9.26.66l-4.53.33-3.11.3-23.17,157.32a108.89,108.89,0,0,0-.95,13.61,56.17,56.17,0,0,0,2.82,16.25,55.42,55.42,0,0,0,8.78,15.24c.5.69,1,1.25,1.43,1.79a16.08,16.08,0,0,1,1.66,2Z"/></clipPath><clipPath id="clip-path-9"><path class="cls-1" d="M-3556.39,437.11h-100.66a19.56,19.56,0,0,0,5.14-3.61c5.93-4.57,10-8.62,12.12-12.23s3.91-9,5.39-16.44c.4-1.53.77-3.07,1.07-4.53l13.11-82.87c1.45-9.94,2.18-16.75,2.18-20.38q0-9.05-3-14.48c-2-3.67-5.5-7.14-10.36-10.47,6.73.51,14.3.76,22.62.76a196.11,196.11,0,0,0,31.46-2.58,187.78,187.78,0,0,0,31.27-7.87l-3.89,25a53.7,53.7,0,0,1,20.82-16.15,67.28,67.28,0,0,1,27.71-5.69,76.81,76.81,0,0,1,12.77,1.11c.76.14,1.38.24,1.89.36a20.88,20.88,0,0,1,2,.58l-8.27,53a37.55,37.55,0,0,0-8.11-5.45c-7.42-4.09-14.62-6.11-21.7-6.11q-13.4,0-24.19,9.88a40.42,40.42,0,0,0-8.82,12.65c-1.71,4.17-3.23,10.5-4.56,19.05l-7.82,49.57-1.57,10.31a32.41,32.41,0,0,0,8.91,22.95c2.68,2.21,4.2,3.41,4.52,3.64"/></clipPath><clipPath id="clip-path-10"><path class="cls-1" d="M-3394.86,437h-99.67a20.11,20.11,0,0,0,5.19-3.58c9.66-7.61,15.1-15.25,16.24-23l15.76-99.47c.86-6.88,1.25-11.24,1.25-13.13a30.29,30.29,0,0,0-1.85-11.4,31.25,31.25,0,0,0-6.1-9c-2.71-2.48-6.18-7-8.7-8.43,7,.84,15,3.21,24.28,3.9a150,150,0,0,0,32.49-1c12.88-1.85,21-3.64,32.2-9.56L-3407,410.47a39.82,39.82,0,0,0,1.82,13,26.56,26.56,0,0,0,6.13,9.64,27.86,27.86,0,0,0,2.88,2.6c.88.67,1.34,1.07,1.34,1.31M-3437,247.6a36,36,0,0,1-8.11-23.08q.5-15.63,11.83-25.64a33.22,33.22,0,0,1,23.4-9.19q14.91,0,25.84,11.88a34.08,34.08,0,0,1,9.18,23.56q0,16.1-12.45,27.16Q-3398,261-3409.83,261q-16.22,0-27.12-13.43"/></clipPath><clipPath id="clip-path-11"><path class="cls-1" d="M-3218.68,271.41c1.07.3,2.51.76,4.29,1.41s3.42,1.21,4.89,1.7l-5.16,33.71c-6.93-6.06-16-10.3-27.14-12.81a84.94,84.94,0,0,0-18.42-2.05q-20,0-33.23,10.67t-18.8,31.21a58.47,58.47,0,0,0-1.79,14,43.15,43.15,0,0,0,12.15,30.68q12.15,12.87,33.69,16.55a53.76,53.76,0,0,0,9.46.61q12.93,0,32.48-4.93a202,202,0,0,0,32.2-10.82l-38.6,47.29c-4,.86-8.13,1.77-12.47,2.66a231.4,231.4,0,0,1-46.2,5.17,170.6,170.6,0,0,1-21.67-1.21,74.9,74.9,0,0,1-33.93-12.14,69.55,69.55,0,0,1-23-25.23,71.1,71.1,0,0,1-8.15-34,90.9,90.9,0,0,1,6.39-32.81,98.39,98.39,0,0,1,23.52-35.17,107.93,107.93,0,0,1,37.23-23.29,129.67,129.67,0,0,1,46.32-8.15,154.08,154.08,0,0,1,45.88,7"/></clipPath><clipPath id="clip-path-12"><path class="cls-1" d="M-2995.53,353.69a58.29,58.29,0,0,1-2.11,11.32h-124.68c.3,7.14,4.48,14.58,12.54,22.4q11.46,11.45,32.38,11.43,13.85,0,36.08-4.65,23.74-5,38.51-12.47l-36.57,47.58-7.3,1q-29.09,5.83-44.64,6.28-24,0-41.85-4.71c-11.87-3.13-21.72-7.79-29.47-13.88a57.48,57.48,0,0,1-17.48-22.79c-3.86-9-6-19.62-6.24-31.66a85.14,85.14,0,0,1,6.53-31.83,103.78,103.78,0,0,1,19.11-30.32q6.68-7.16,12.83-12.58,30.68-23.9,72.87-24.33a134.75,134.75,0,0,1,15.37.94q32.64,3.57,49.1,20.66t16.47,47.5a174.14,174.14,0,0,1-1.46,20.14m-124.09-21.08h66.54a36.74,36.74,0,0,0,.61-5.59q0-15.81-7.11-24c-4.73-5.42-11.17-8.16-19.21-8.16a37.7,37.7,0,0,0-7.64.61q-16.59,3-27.37,20.94a59,59,0,0,0-5.83,16.17"/></clipPath><clipPath id="clip-path-13"><path class="cls-2" d="M-2832.08,437h-175.07l115.62-132.74q-16.36,0-43.51,4.2c-13.42,2.12-24.61,4.65-33.55,7.68l-2.18.93-3.12,1.26L-2943,272h156.67l-114.83,132.44,2.93.32,5.17.31h12.69c3.81,0,8.07,0,12.82-.09s8.23-.11,10.54-.22q22.58-1.69,34.64-4.76a91.26,91.26,0,0,0,22.57-9Z"/></clipPath><clipPath id="clip-path-14"><path class="cls-2" d="M-2648,266.44q22.34,1.36,39.38,4.11a206.08,206.08,0,0,1,30.74,7.16l-.88.92-2.14,1.66A40.54,40.54,0,0,0-2592,292a46.13,46.13,0,0,0-5.38,15l-11.43,73.23c0,5.26,1,8.85,3,10.78s5.82,2.87,11.26,2.87q2.27,0,9.53-.61a7,7,0,0,0,2.11-.3l-33.35,39.94a76.76,76.76,0,0,1-12.39,3.17,77,77,0,0,1-13.58,1.52c-7.25,0-13.48-1.35-18.63-4a28.37,28.37,0,0,1-11.87-11,31.66,31.66,0,0,1-4.07-16.1,54.42,54.42,0,0,1,.6-6.53l14.78-93.43c-.59-.2-1.24-.47-1.95-.76a14.78,14.78,0,0,0-1.65-.63,57.68,57.68,0,0,0-17-2.42,42.43,42.43,0,0,0-21,5.33q-9.55,5.3-16.92,16.07a53.29,53.29,0,0,0-7,16.49,106.91,106.91,0,0,0-2.8,22.43v8.19c.29,8.39,3.19,15.32,8.63,20.73a27.22,27.22,0,0,0,19.87,8.11,33.26,33.26,0,0,0,10.51-1.52,23.58,23.58,0,0,0,5.87-2.12l2.69-1.34,2.13-1.22-32.59,38.48-2.1.61-3.74.92a90.1,90.1,0,0,1-12.29,1.93c-2,.21-5,.3-8.9.3q-18,0-31.86-7.49a51.45,51.45,0,0,1-21.29-21.2q-7.43-13.73-7.41-31.59a104.1,104.1,0,0,1,2.39-20.47q4.89-21.53,15.26-37.77A96.89,96.89,0,0,1-2755.91,290q16.09-11.26,38.86-17.4t51.86-6.6c7.54,0,13.29.16,17.18.47"/></clipPath><clipPath id="clip-path-15"><path class="cls-1" d="M-2329,1180.86c1.89-1.62,3.07-2.68,3.6-3.14q9.75-8.83,14.32-17.12a58.91,58.91,0,0,0,6.24-19.89l18.08-122.06a74.14,74.14,0,0,0,1.19-13.06c0-7.43-2.12-15.41-6.31-23.93-1-1.75-1.56-2.86-1.91-3.42h106.4a26,26,0,0,1,4.36.28q33.16,2.18,49.73,14.08t16.57,32.48q0,11.85-5.77,27.1a68.41,68.41,0,0,1-15.11,23.51,70.32,70.32,0,0,1-23.86,15.79,78.14,78.14,0,0,1-29.93,5.64q-23.37,0-36.35-7.06a45.67,45.67,0,0,0,5.23.54q15.69,0,29.58-14.75a43.3,43.3,0,0,0,8.93-12.77,51.3,51.3,0,0,0,3.91-15.8,62.28,62.28,0,0,0,.54-9.29q-.4-14.47-7.86-21c-5-4.36-13.17-6.56-24.53-6.56-1.63,0-4.16.2-7.6.54l-3.72.27-2.55.25-19,129.21a89.44,89.44,0,0,0-.78,11.18,46.14,46.14,0,0,0,2.32,13.35,45.52,45.52,0,0,0,7.21,12.51c.41.57.81,1,1.18,1.47a13.2,13.2,0,0,1,1.36,1.67Z"/></clipPath><clipPath id="clip-path-16"><path class="cls-1" d="M-2050,1181h-82.68a16.07,16.07,0,0,0,4.22-3c4.87-3.75,8.2-7.08,10-10s3.21-7.42,4.43-13.5c.33-1.26.63-2.52.88-3.72l10.77-68.07a141.2,141.2,0,0,0,1.79-16.74q0-7.44-2.5-11.9c-1.66-3-4.52-5.86-8.51-8.6,5.53.42,11.74.62,18.58.62a161.08,161.08,0,0,0,25.84-2.12,154.23,154.23,0,0,0,25.69-6.47l-3.2,20.51a44.11,44.11,0,0,1,17.1-13.27,55.26,55.26,0,0,1,22.76-4.67,63.09,63.09,0,0,1,10.49.91c.62.12,1.13.2,1.55.3a17.15,17.15,0,0,1,1.66.47l-6.8,43.56a30.84,30.84,0,0,0-6.66-4.48,36.69,36.69,0,0,0-17.82-5q-11,0-19.87,8.11a33.2,33.2,0,0,0-7.25,10.39c-1.4,3.42-2.65,8.62-3.75,15.65l-6.42,40.71-1.29,8.47a26.62,26.62,0,0,0,7.31,18.85c2.2,1.82,3.45,2.8,3.72,3"/></clipPath><clipPath id="clip-path-17"><path class="cls-1" d="M-1917.3,1180.86h-81.86a16.52,16.52,0,0,0,4.26-2.94c7.93-6.25,12.4-12.52,13.34-18.87l12.95-81.7c.71-5.65,1-9.23,1-10.78a24.88,24.88,0,0,0-1.52-9.36,25.67,25.67,0,0,0-5-7.43c-2.23-2-5.07-5.78-7.14-6.92,5.74.69,12.3,2.63,19.94,3.21a123.18,123.18,0,0,0,26.68-.84c10.58-1.52,17.27-3,26.45-7.85l-19.1,121.7a32.7,32.7,0,0,0,1.49,10.66,21.82,21.82,0,0,0,5,7.92,22.88,22.88,0,0,0,2.37,2.13c.72.55,1.1.88,1.1,1.07m-34.57-155.56a29.52,29.52,0,0,1-6.66-19,28.11,28.11,0,0,1,9.72-21.06,27.29,27.29,0,0,1,19.22-7.55q12.25,0,21.22,9.76a28,28,0,0,1,7.54,19.35,28.66,28.66,0,0,1-10.22,22.31q-8.83,7.19-18.54,7.18-13.33,0-22.28-11"/></clipPath><clipPath id="clip-path-18"><path class="cls-1" d="M-1772.59,1044.85c.87.24,2.06.62,3.52,1.16s2.81,1,4,1.39l-4.24,27.69c-5.69-5-13.12-8.46-22.29-10.52a69.77,69.77,0,0,0-15.13-1.69q-16.41,0-27.29,8.76t-15.44,25.64a48,48,0,0,0-1.47,11.48,35.44,35.44,0,0,0,10,25.2q10,10.57,27.67,13.6a44.15,44.15,0,0,0,7.77.5q10.62,0,26.68-4a165.89,165.89,0,0,0,26.45-8.88l-31.7,38.84c-3.26.71-6.68,1.45-10.24,2.19a190.06,190.06,0,0,1-37.94,4.25,140.12,140.12,0,0,1-17.8-1,61.52,61.52,0,0,1-27.87-10,57.12,57.12,0,0,1-18.85-20.72,58.4,58.4,0,0,1-6.69-27.93,74.66,74.66,0,0,1,5.25-26.95,80.81,80.81,0,0,1,19.32-28.89,88.64,88.64,0,0,1,30.58-19.13,106.5,106.5,0,0,1,38-6.7,126.56,126.56,0,0,1,37.69,5.72"/></clipPath><clipPath id="clip-path-19"><path class="cls-1" d="M-1589.3,1112.43a47.88,47.88,0,0,1-1.74,9.29h-102.4c.25,5.86,3.68,12,10.3,18.4q9.42,9.41,26.59,9.39,11.38,0,29.63-3.82,19.5-4.1,31.63-10.25l-30,39.08-6,.8q-23.89,4.79-36.67,5.16-19.71,0-34.37-3.87c-9.75-2.57-17.84-6.4-24.21-11.4a47.21,47.21,0,0,1-14.35-18.72c-3.17-7.43-4.9-16.11-5.12-26a69.93,69.93,0,0,1,5.36-26.15,85.24,85.24,0,0,1,15.7-24.9q5.49-5.88,10.54-10.33,25.2-19.63,59.86-20a110.68,110.68,0,0,1,12.62.77q26.81,2.93,40.33,17t13.53,39a143,143,0,0,1-1.2,16.54m-101.92-17.31h54.65a30.18,30.18,0,0,0,.5-4.59q0-13-5.84-19.69c-3.89-4.45-9.17-6.7-15.78-6.7a31,31,0,0,0-6.27.5q-13.63,2.49-22.48,17.2a48.46,48.46,0,0,0-4.79,13.28"/></clipPath><clipPath id="clip-path-20"><path class="cls-2" d="M-1455.05,1180.86h-143.8l95-109q-13.44,0-35.74,3.45a171.12,171.12,0,0,0-27.56,6.31l-1.79.77-2.56,1,25.36-38h128.68l-94.32,108.78,2.41.26,4.25.26h10.42c3.13,0,6.63,0,10.53-.07s6.76-.09,8.65-.18q18.55-1.39,28.45-3.91a75,75,0,0,0,18.54-7.36Z"/></clipPath><clipPath id="clip-path-21"><path class="cls-2" d="M-1303.87,1040.77q18.35,1.12,32.34,3.37a169.26,169.26,0,0,1,25.25,5.88l-.72.75-1.76,1.37a33.3,33.3,0,0,0-9.1,9.61,37.89,37.89,0,0,0-4.42,12.32l-9.38,60.15c0,4.32.8,7.27,2.5,8.86s4.78,2.36,9.25,2.36q1.86,0,7.83-.5a5.77,5.77,0,0,0,1.73-.24l-27.39,32.8a63.05,63.05,0,0,1-10.17,2.6,63.23,63.23,0,0,1-11.15,1.25,32.88,32.88,0,0,1-15.3-3.31,23.3,23.3,0,0,1-9.75-9,26,26,0,0,1-3.34-13.22,44.7,44.7,0,0,1,.5-5.36l12.14-76.74c-.48-.16-1-.39-1.6-.62a12.14,12.14,0,0,0-1.35-.52,47.38,47.38,0,0,0-13.94-2,34.85,34.85,0,0,0-17.22,4.38,41.53,41.53,0,0,0-13.9,13.2,43.77,43.77,0,0,0-5.72,13.54,87.81,87.81,0,0,0-2.3,18.42v6.72a24.29,24.29,0,0,0,7.09,17,22.35,22.35,0,0,0,16.32,6.66,27.31,27.31,0,0,0,8.63-1.25,19.36,19.36,0,0,0,4.82-1.74l2.21-1.1,1.75-1-26.77,31.6-1.73.5-3.08.75a74,74,0,0,1-10.09,1.59c-1.66.17-4.09.25-7.31.25q-14.76,0-26.17-6.15a42.26,42.26,0,0,1-17.49-17.42q-6.1-11.28-6.09-25.95a85.5,85.5,0,0,1,2-16.81,96.69,96.69,0,0,1,12.53-31,79.58,79.58,0,0,1,21.81-22.68q13.21-9.25,31.92-14.29t42.59-5.42c6.19,0,10.92.13,14.11.39"/></clipPath><clipPath id="clip-path-22"><path class="cls-1" d="M75.71,363c2.15-1.84,3.49-3,4.09-3.57Q90.86,349.41,96,340a66.87,66.87,0,0,0,7.09-22.58l20.52-138.56A84.16,84.16,0,0,0,125,164c0-8.43-2.41-17.49-7.16-27.16-1.08-2-1.77-3.25-2.17-3.88H236.46a29.51,29.51,0,0,1,4.95.32q37.64,2.47,56.45,16t18.81,36.87q0,13.45-6.54,30.76A77.66,77.66,0,0,1,293,243.62a79.82,79.82,0,0,1-27.09,17.93,88.7,88.7,0,0,1-34,6.41q-26.53,0-41.26-8a51.85,51.85,0,0,0,5.94.61q17.81,0,33.57-16.75a49.15,49.15,0,0,0,10.14-14.5,58.23,58.23,0,0,0,4.44-17.94,70.7,70.7,0,0,0,.61-10.54q-.45-16.42-8.92-23.88c-5.64-4.95-15-7.45-27.85-7.45-1.85,0-4.73.22-8.63.61l-4.22.31-2.9.28-21.6,146.68a101.52,101.52,0,0,0-.88,12.69A52.37,52.37,0,0,0,173,345.23a51.67,51.67,0,0,0,8.19,14.21c.47.64.92,1.16,1.34,1.67a15,15,0,0,1,1.55,1.9Z"/></clipPath><clipPath id="clip-path-23"><rect class="cls-3" x="-851" y="-1648" width="10902" height="6634"/></clipPath><clipPath id="clip-path-24"><path class="cls-1" d="M393,363H298.64a18.24,18.24,0,0,0,4.79-3.37c5.53-4.26,9.31-8,11.3-11.4s3.64-8.43,5-15.33c.37-1.43.72-2.86,1-4.22L333,251.39c1.35-9.27,2-15.62,2-19q0-8.44-2.83-13.51c-1.88-3.42-5.13-6.66-9.67-9.76,6.28.47,13.33.7,21.09.7a182.89,182.89,0,0,0,29.34-2.4,175.12,175.12,0,0,0,29.17-7.34l-3.63,23.29a50.08,50.08,0,0,1,19.41-15.06,62.75,62.75,0,0,1,25.85-5.3,71.63,71.63,0,0,1,11.91,1c.71.13,1.28.22,1.76.34a19.47,19.47,0,0,1,1.89.54l-7.72,49.46a35,35,0,0,0-7.56-5.09c-6.92-3.82-13.64-5.7-20.24-5.7q-12.5,0-22.56,9.21a37.7,37.7,0,0,0-8.23,11.8c-1.59,3.89-3,9.79-4.26,17.77l-7.29,46.23L380,338.2a30.23,30.23,0,0,0,8.3,21.4c2.5,2.07,3.92,3.18,4.22,3.4"/></clipPath><clipPath id="clip-path-26"><path class="cls-1" d="M543,363H450.21a18.75,18.75,0,0,0,4.84-3.34c9-7.09,14.08-14.22,15.15-21.42l14.7-92.77c.81-6.41,1.17-10.48,1.17-12.24a28.25,28.25,0,0,0-1.73-10.63,29.15,29.15,0,0,0-5.69-8.44c-2.53-2.31-5.76-6.57-8.11-7.86,6.51.79,14,3,22.64,3.64a139.87,139.87,0,0,0,30.3-1c12-1.73,19.61-3.39,30-8.91L531.81,338.26a37.13,37.13,0,0,0,1.69,12.1,24.77,24.77,0,0,0,5.72,9,26,26,0,0,0,2.69,2.42c.82.63,1.25,1,1.25,1.22M503.9,185.91a33.52,33.52,0,0,1-7.56-21.53q.47-14.57,11-23.91a31,31,0,0,1,21.83-8.57q13.9,0,24.1,11.08a31.78,31.78,0,0,1,8.56,22q0,15-11.61,25.33-10,8.16-21.05,8.15-15.13,0-25.29-12.53"/></clipPath><clipPath id="clip-path-27"><rect class="cls-3" x="-846" y="-1648" width="10902" height="6634"/></clipPath><clipPath id="clip-path-28"><path class="cls-1" d="M707.47,208.12c1,.28,2.34.71,4,1.32s3.19,1.13,4.56,1.58l-4.81,31.43c-6.46-5.65-14.9-9.6-25.31-11.94a79.22,79.22,0,0,0-17.18-1.92q-18.63,0-31,10t-17.53,29.11a54.53,54.53,0,0,0-1.67,13,40.24,40.24,0,0,0,11.33,28.61q11.33,12,31.42,15.44a50.13,50.13,0,0,0,8.82.57q12.06,0,30.29-4.6a188.36,188.36,0,0,0,30-10.09l-36,44.1c-3.7.8-7.58,1.65-11.63,2.48A215.8,215.8,0,0,1,639.73,362a159.1,159.1,0,0,1-20.21-1.13,69.85,69.85,0,0,1-31.64-11.32,64.86,64.86,0,0,1-21.41-23.53,66.3,66.3,0,0,1-7.6-31.71,84.78,84.78,0,0,1,6-30.6A91.76,91.76,0,0,1,586.76,231a100.65,100.65,0,0,1,34.72-21.72,120.92,120.92,0,0,1,43.2-7.6,143.7,143.7,0,0,1,42.79,6.49"/></clipPath><clipPath id="clip-path-29"><rect class="cls-3" x="-843" y="-1648" width="10902" height="6634"/></clipPath><clipPath id="clip-path-30"><path class="cls-1" d="M915.58,284.45a54.36,54.36,0,0,1-2,10.55H797.33c.28,6.66,4.17,13.59,11.69,20.89q10.69,10.68,30.2,10.66,12.92,0,33.64-4.33,22.14-4.65,35.92-11.63L874.68,355l-6.8.91q-27.13,5.44-41.63,5.86-22.38,0-39-4.39c-11.07-2.92-20.26-7.27-27.49-12.94a53.6,53.6,0,0,1-16.3-21.25c-3.6-8.44-5.56-18.3-5.82-29.53a79.4,79.4,0,0,1,6.09-29.69,96.78,96.78,0,0,1,17.82-28.27q6.23-6.67,12-11.73,28.61-22.29,68-22.69a125.67,125.67,0,0,1,14.33.88q30.44,3.33,45.79,19.27t15.36,44.3a162.4,162.4,0,0,1-1.36,18.78M800,265h61.9a34.26,34.26,0,0,0,.57-5.21q0-14.74-6.63-22.35c-4.41-5.06-10.41-7.61-17.91-7.61a35.16,35.16,0,0,0-7.12.57q-15.47,2.82-25.52,19.53A55,55,0,0,0,799.85,265"/></clipPath><clipPath id="clip-path-31"><rect class="cls-3" x="-837" y="-1648" width="10902" height="6634"/></clipPath><clipPath id="clip-path-32"><path class="cls-4" d="M1068.07,363H904.67l107.94-123.93q-15.28,0-40.62,3.92c-12.52,2-23,4.34-31.33,7.17l-2,.87-2.91,1.18L964.55,209h146.06l-107,123.41,2.73.3,4.82.29h11.46c3.58,0,7.59,0,12.06-.08s7.74-.1,9.91-.21q21.25-1.59,32.59-4.48a85.86,85.86,0,0,0,21.24-8.43Z"/></clipPath><clipPath id="clip-path-33"><rect class="cls-5" x="-848" y="-1648" width="10902" height="6634"/></clipPath><clipPath id="clip-path-34"><path class="cls-4" d="M1240.09,203.47q20.84,1.27,36.72,3.83a192.18,192.18,0,0,1,28.67,6.67l-.82.85-2,1.55a37.81,37.81,0,0,0-10.34,10.91,43,43,0,0,0-5,14l-10.66,68.3c0,4.9.91,8.25,2.84,10.06s5.43,2.68,10.5,2.68q2.12,0,8.89-.57a6.55,6.55,0,0,0,2-.28l-31.1,37.25a88.65,88.65,0,0,1-24.21,4.37c-6.76,0-12.57-1.26-17.37-3.75a26.46,26.46,0,0,1-11.07-10.24,29.53,29.53,0,0,1-3.79-15,50.76,50.76,0,0,1,.56-6.09l13.78-87.13c-.55-.18-1.15-.44-1.82-.7a13.78,13.78,0,0,0-1.54-.59,53.79,53.79,0,0,0-15.83-2.26,39.57,39.57,0,0,0-19.55,5q-8.91,4.94-15.78,15a49.7,49.7,0,0,0-6.5,15.38,99.7,99.7,0,0,0-2.61,20.91v7.63c.27,7.83,3,14.29,8,19.34a25.38,25.38,0,0,0,18.53,7.56,31,31,0,0,0,9.8-1.42,22,22,0,0,0,5.48-2l2.51-1.25,2-1.14-30.4,35.88-2,.57-3.49.85a84,84,0,0,1-11.46,1.8c-1.88.2-4.64.28-8.3.28q-16.76,0-29.71-7a48,48,0,0,1-19.86-19.78q-6.92-12.8-6.91-29.46a97.08,97.08,0,0,1,2.23-19.09,109.78,109.78,0,0,1,14.23-35.22,90.35,90.35,0,0,1,24.76-25.76q15-10.5,36.24-16.23t48.36-6.16c7,0,12.39.15,16,.44"/></clipPath></defs><title>Artboard 2</title><path class="cls-6" d="M-3960.48,1156.11c2.17-1.86,3.53-3.08,4.13-3.61q11.19-10.13,16.43-19.65a67.61,67.61,0,0,0,7.17-22.82L-3912,969.94a85.08,85.08,0,0,0,1.37-15c0-8.53-2.44-17.69-7.24-27.46-1.09-2-1.79-3.29-2.19-3.92H-3798a29.83,29.83,0,0,1,5,.33q38.05,2.5,57.08,16.16t19,37.28q0,13.6-6.62,31.1a78.51,78.51,0,0,1-17.34,27,80.7,80.7,0,0,1-27.38,18.12,89.67,89.67,0,0,1-34.34,6.48q-26.82,0-41.71-8.11a52.42,52.42,0,0,0,6,.62q18,0,33.94-16.93a49.69,49.69,0,0,0,10.25-14.66,58.88,58.88,0,0,0,4.49-18.13,71.48,71.48,0,0,0,.62-10.66q-.46-16.61-9-24.14c-5.7-5-15.12-7.53-28.15-7.53-1.87,0-4.78.22-8.72.62l-4.27.31-2.93.29L-3863.9,1110a102.64,102.64,0,0,0-.89,12.83,53,53,0,0,0,2.66,15.32,52.24,52.24,0,0,0,8.28,14.36c.47.65.93,1.18,1.35,1.68a15.15,15.15,0,0,1,1.56,1.92Z"/><g class="cls-7"><rect class="cls-3" x="-4897.23" y="-876.23" width="11018.99" height="6705.33"/></g><path class="cls-6" d="M-3640.23,1156.21h-94.89a18.44,18.44,0,0,0,4.84-3.41c5.59-4.31,9.41-8.13,11.42-11.52s3.68-8.52,5.08-15.5c.38-1.44.73-2.89,1-4.27l12.36-78.12c1.37-9.37,2.06-15.79,2.06-19.21q0-8.53-2.86-13.65c-1.9-3.46-5.19-6.73-9.77-9.87,6.34.48,13.48.71,21.32.71A184.86,184.86,0,0,0-3660,999a177,177,0,0,0,29.48-7.42l-3.67,23.54a50.62,50.62,0,0,1,19.62-15.23,63.42,63.42,0,0,1,26.12-5.36,72.4,72.4,0,0,1,12,1c.72.13,1.3.23,1.78.34a19.68,19.68,0,0,1,1.91.54l-7.8,50a35.4,35.4,0,0,0-7.64-5.14c-7-3.86-13.78-5.76-20.45-5.76q-12.63,0-22.8,9.31a38.11,38.11,0,0,0-8.32,11.93c-1.61,3.93-3,9.9-4.3,18l-7.37,46.73-1.48,9.72a30.55,30.55,0,0,0,8.39,21.63c2.53,2.09,4,3.22,4.27,3.43"/><g class="cls-8"><rect class="cls-3" x="-4897.23" y="-876.23" width="11018.99" height="6705.33"/></g><path class="cls-6" d="M-3488,1156.11h-94a19,19,0,0,0,4.89-3.38c9.1-7.17,14.23-14.37,15.31-21.65l14.86-93.76c.81-6.48,1.18-10.59,1.18-12.37a28.55,28.55,0,0,0-1.74-10.75,29.46,29.46,0,0,0-5.75-8.53c-2.56-2.34-5.82-6.64-8.2-7.94,6.58.79,14.12,3,22.88,3.68a141.37,141.37,0,0,0,30.63-1c12.14-1.75,19.83-3.43,30.35-9l-21.92,139.67a37.53,37.53,0,0,0,1.71,12.23,25,25,0,0,0,5.78,9.09,26.26,26.26,0,0,0,2.72,2.45c.83.63,1.26,1,1.26,1.23m-39.68-178.53a33.88,33.88,0,0,1-7.65-21.76q.47-14.73,11.15-24.17a31.32,31.32,0,0,1,22.06-8.66q14.05,0,24.36,11.2a32.12,32.12,0,0,1,8.65,22.21q0,15.17-11.73,25.61-10.13,8.25-21.28,8.24-15.29,0-25.57-12.66"/><g class="cls-9"><rect class="cls-3" x="-4891.48" y="-876.23" width="11018.99" height="6705.33"/></g><path class="cls-6" d="M-3321.89,1000c1,.28,2.36.72,4,1.33s3.23,1.14,4.61,1.6l-4.86,31.77c-6.53-5.71-15.06-9.71-25.58-12.07a80.07,80.07,0,0,0-17.37-1.94q-18.83,0-31.32,10.06t-17.72,29.42a55.12,55.12,0,0,0-1.69,13.18,40.67,40.67,0,0,0,11.46,28.92q11.45,12.13,31.75,15.6a50.67,50.67,0,0,0,8.92.57q12.19,0,30.62-4.65a190.39,190.39,0,0,0,30.35-10.19l-36.38,44.58c-3.74.81-7.67,1.66-11.75,2.51a218.12,218.12,0,0,1-43.55,4.88,160.81,160.81,0,0,1-20.43-1.14,70.6,70.6,0,0,1-32-11.44,65.56,65.56,0,0,1-21.64-23.78,67,67,0,0,1-7.68-32.05,85.69,85.69,0,0,1,6-30.93,92.74,92.74,0,0,1,22.17-33.15,101.73,101.73,0,0,1,35.09-22,122.23,122.23,0,0,1,43.66-7.69,145.24,145.24,0,0,1,43.25,6.56"/><g class="cls-10"><rect class="cls-3" x="-4888.6" y="-876.23" width="11018.99" height="6705.33"/></g><path class="cls-6" d="M-3111.54,1077.57a54.94,54.94,0,0,1-2,10.67h-117.52c.29,6.73,4.22,13.74,11.82,21.12q10.81,10.8,30.52,10.77,13.06,0,34-4.38,22.37-4.7,36.3-11.76l-34.47,44.85-6.88.92q-27.42,5.49-42.08,5.92-22.62,0-39.44-4.44c-11.19-3-20.47-7.34-27.78-13.08a54.18,54.18,0,0,1-16.47-21.48c-3.64-8.53-5.62-18.49-5.88-29.84a80.25,80.25,0,0,1,6.15-30,97.82,97.82,0,0,1,18-28.58q6.3-6.75,12.09-11.85,28.92-22.53,68.69-22.94a127,127,0,0,1,14.49.89q30.77,3.37,46.29,19.47t15.52,44.78a164.15,164.15,0,0,1-1.37,19m-117-19.87h62.72a34.63,34.63,0,0,0,.58-5.27q0-14.9-6.7-22.59c-4.46-5.11-10.53-7.69-18.11-7.69a35.54,35.54,0,0,0-7.2.57q-15.64,2.85-25.8,19.74a55.61,55.61,0,0,0-5.49,15.24"/><g class="cls-11"><rect class="cls-3" x="-4882.84" y="-876.23" width="11018.99" height="6705.33"/></g><path class="cls-6" d="M-2957.47,1156.11h-165l109-125.13q-15.42,0-41,4c-12.65,2-23.2,4.38-31.63,7.24l-2.05.88-2.94,1.19,29.1-43.63h147.68l-108.24,124.84,2.76.3,4.88.29h12c3.59,0,7.6,0,12.08-.08s7.75-.1,9.93-.21q21.29-1.59,32.65-4.48a86,86,0,0,0,21.28-8.44Z"/><g class="cls-12"><rect class="cls-3" x="-4894.35" y="-876.23" width="11018.99" height="6705.33"/></g><path class="cls-6" d="M-2784,995.33q21.06,1.28,37.12,3.87a194.25,194.25,0,0,1,29,6.75l-.83.86-2,1.57a38.21,38.21,0,0,0-10.45,11,43.49,43.49,0,0,0-5.08,14.14l-10.77,69c0,5,.92,8.34,2.87,10.16s5.48,2.71,10.61,2.71q2.14,0,9-.57a6.62,6.62,0,0,0,2-.28l-31.44,37.65a72.36,72.36,0,0,1-11.68,3,72.57,72.57,0,0,1-12.8,1.43c-6.84,0-12.7-1.27-17.56-3.8a26.74,26.74,0,0,1-11.19-10.35,29.85,29.85,0,0,1-3.84-15.17,51.3,51.3,0,0,1,.57-6.15l13.93-88.07c-.55-.19-1.17-.44-1.84-.71a13.93,13.93,0,0,0-1.55-.6,54.37,54.37,0,0,0-16-2.28,40,40,0,0,0-19.76,5q-9,5-16,15.15a50.23,50.23,0,0,0-6.57,15.54,100.77,100.77,0,0,0-2.64,21.14v7.72c.27,7.91,3,14.44,8.13,19.54a25.66,25.66,0,0,0,18.73,7.64,31.35,31.35,0,0,0,9.91-1.43,22.22,22.22,0,0,0,5.53-2l2.53-1.27,2-1.15-30.72,36.27-2,.57-3.53.86a84.93,84.93,0,0,1-11.58,1.82c-1.91.2-4.69.29-8.39.29q-16.94,0-30-7.06a48.5,48.5,0,0,1-20.07-20q-7-12.94-7-29.78a98.13,98.13,0,0,1,2.25-19.29q4.61-20.29,14.38-35.6a91.33,91.33,0,0,1,25-26q15.16-10.61,36.63-16.4t48.88-6.22c7.11,0,12.53.15,16.19.45"/><g class="cls-13"><rect class="cls-3" x="-4894.35" y="-876.23" width="11018.99" height="6705.33"/></g><path class="cls-6" d="M-3896.13,437c2.3-2,3.74-3.26,4.38-3.83q11.87-10.75,17.43-20.85t7.6-24.21l22-148.61a90.26,90.26,0,0,0,1.45-15.9c0-9-2.59-18.76-7.68-29.13-1.16-2.13-1.9-3.49-2.33-4.16h129.54a31.65,31.65,0,0,1,5.31.35q40.37,2.65,60.55,17.14t20.17,39.54q0,14.43-7,33A83.29,83.29,0,0,1-3663.1,309a85.62,85.62,0,0,1-29.05,19.23,95.13,95.13,0,0,1-36.44,6.87q-28.46,0-44.25-8.6a55.61,55.61,0,0,0,6.37.66q19.11,0,36-18a52.72,52.72,0,0,0,10.88-15.55,62.46,62.46,0,0,0,4.76-19.24,75.83,75.83,0,0,0,.66-11.31q-.49-17.62-9.57-25.61c-6.05-5.3-16-8-29.87-8-2,0-5.07.24-9.26.66l-4.53.33-3.11.3-23.17,157.32a108.89,108.89,0,0,0-.95,13.61,56.17,56.17,0,0,0,2.82,16.25,55.42,55.42,0,0,0,8.78,15.24c.5.69,1,1.25,1.43,1.79a16.08,16.08,0,0,1,1.66,2Z"/><g class="cls-14"><rect class="cls-3" x="-4889.89" y="-1719.02" width="11689.57" height="7113.39"/></g><path class="cls-6" d="M-3556.39,437.11h-100.66a19.56,19.56,0,0,0,5.14-3.61c5.93-4.57,10-8.62,12.12-12.23s3.91-9,5.39-16.44c.4-1.53.77-3.07,1.07-4.53l13.11-82.87c1.45-9.94,2.18-16.75,2.18-20.38q0-9.05-3-14.48c-2-3.67-5.5-7.14-10.36-10.47,6.73.51,14.3.76,22.62.76a196.11,196.11,0,0,0,31.46-2.58,187.78,187.78,0,0,0,31.27-7.87l-3.89,25a53.7,53.7,0,0,1,20.82-16.15,67.28,67.28,0,0,1,27.71-5.69,76.81,76.81,0,0,1,12.77,1.11c.76.14,1.38.24,1.89.36a20.88,20.88,0,0,1,2,.58l-8.27,53a37.55,37.55,0,0,0-8.11-5.45c-7.42-4.09-14.62-6.11-21.7-6.11q-13.4,0-24.19,9.88a40.42,40.42,0,0,0-8.82,12.65c-1.71,4.17-3.23,10.5-4.56,19.05l-7.82,49.57-1.57,10.31a32.41,32.41,0,0,0,8.91,22.95c2.68,2.21,4.2,3.41,4.52,3.64"/><g class="cls-15"><rect class="cls-3" x="-4889.89" y="-1719.02" width="11689.57" height="7113.39"/></g><path class="cls-6" d="M-3394.86,437h-99.67a20.11,20.11,0,0,0,5.19-3.58c9.66-7.61,15.1-15.25,16.24-23l15.76-99.47c.86-6.88,1.25-11.24,1.25-13.13a30.29,30.29,0,0,0-1.85-11.4,31.25,31.25,0,0,0-6.1-9c-2.71-2.48-6.18-7-8.7-8.43,7,.84,15,3.21,24.28,3.9a150,150,0,0,0,32.49-1c12.88-1.85,21-3.64,32.2-9.56L-3407,410.47a39.82,39.82,0,0,0,1.82,13,26.56,26.56,0,0,0,6.13,9.64,27.86,27.86,0,0,0,2.88,2.6c.88.67,1.34,1.07,1.34,1.31M-3437,247.6a36,36,0,0,1-8.11-23.08q.5-15.63,11.83-25.64a33.22,33.22,0,0,1,23.4-9.19q14.91,0,25.84,11.88a34.08,34.08,0,0,1,9.18,23.56q0,16.1-12.45,27.16Q-3398,261-3409.83,261q-16.22,0-27.12-13.43"/><g class="cls-16"><rect class="cls-3" x="-4883.78" y="-1719.02" width="11689.57" height="7113.39"/></g><path class="cls-6" d="M-3218.68,271.41c1.07.3,2.51.76,4.29,1.41s3.42,1.21,4.89,1.7l-5.16,33.71c-6.93-6.06-16-10.3-27.14-12.81a84.94,84.94,0,0,0-18.42-2.05q-20,0-33.23,10.67t-18.8,31.21a58.47,58.47,0,0,0-1.79,14,43.15,43.15,0,0,0,12.15,30.68q12.15,12.87,33.69,16.55a53.76,53.76,0,0,0,9.46.61q12.93,0,32.48-4.93a202,202,0,0,0,32.2-10.82l-38.6,47.29c-4,.86-8.13,1.77-12.47,2.66a231.4,231.4,0,0,1-46.2,5.17,170.6,170.6,0,0,1-21.67-1.21,74.9,74.9,0,0,1-33.93-12.14,69.55,69.55,0,0,1-23-25.23,71.1,71.1,0,0,1-8.15-34,90.9,90.9,0,0,1,6.39-32.81,98.39,98.39,0,0,1,23.52-35.17,107.93,107.93,0,0,1,37.23-23.29,129.67,129.67,0,0,1,46.32-8.15,154.08,154.08,0,0,1,45.88,7"/><g class="cls-17"><rect class="cls-3" x="-4880.73" y="-1719.02" width="11689.57" height="7113.39"/></g><path class="cls-6" d="M-2995.53,353.69a58.29,58.29,0,0,1-2.11,11.32h-124.68c.3,7.14,4.48,14.58,12.54,22.4q11.46,11.45,32.38,11.43,13.85,0,36.08-4.65,23.74-5,38.51-12.47l-36.57,47.58-7.3,1q-29.09,5.83-44.64,6.28-24,0-41.85-4.71c-11.87-3.13-21.72-7.79-29.47-13.88a57.48,57.48,0,0,1-17.48-22.79c-3.86-9-6-19.62-6.24-31.66a85.14,85.14,0,0,1,6.53-31.83,103.78,103.78,0,0,1,19.11-30.32q6.68-7.16,12.83-12.58,30.68-23.9,72.87-24.33a134.75,134.75,0,0,1,15.37.94q32.64,3.57,49.1,20.66t16.47,47.5a174.14,174.14,0,0,1-1.46,20.14m-124.09-21.08h66.54a36.74,36.74,0,0,0,.61-5.59q0-15.81-7.11-24c-4.73-5.42-11.17-8.16-19.21-8.16a37.7,37.7,0,0,0-7.64.61q-16.59,3-27.37,20.94a59,59,0,0,0-5.83,16.17"/><g class="cls-18"><rect class="cls-3" x="-4874.62" y="-1719.02" width="11689.57" height="7113.39"/></g><path class="cls-19" d="M-2832.08,437h-175.07l115.62-132.74q-16.36,0-43.51,4.2c-13.42,2.12-24.61,4.65-33.55,7.68l-2.18.93-3.12,1.26L-2943,272h156.67l-114.83,132.44,2.93.32,5.17.31h12.69c3.81,0,8.07,0,12.82-.09s8.23-.11,10.54-.22q22.58-1.69,34.64-4.76a91.26,91.26,0,0,0,22.57-9Z"/><g class="cls-20"><rect class="cls-21" x="-4886.84" y="-1719.02" width="11689.57" height="7113.39"/></g><path class="cls-19" d="M-2648,266.44q22.34,1.36,39.38,4.11a206.08,206.08,0,0,1,30.74,7.16l-.88.92-2.14,1.66A40.54,40.54,0,0,0-2592,292a46.13,46.13,0,0,0-5.38,15l-11.43,73.23c0,5.26,1,8.85,3,10.78s5.82,2.87,11.26,2.87q2.27,0,9.53-.61a7,7,0,0,0,2.11-.3l-33.35,39.94a76.76,76.76,0,0,1-12.39,3.17,77,77,0,0,1-13.58,1.52c-7.25,0-13.48-1.35-18.63-4a28.37,28.37,0,0,1-11.87-11,31.66,31.66,0,0,1-4.07-16.1,54.42,54.42,0,0,1,.6-6.53l14.78-93.43c-.59-.2-1.24-.47-1.95-.76a14.78,14.78,0,0,0-1.65-.63,57.68,57.68,0,0,0-17-2.42,42.43,42.43,0,0,0-21,5.33q-9.55,5.3-16.92,16.07a53.29,53.29,0,0,0-7,16.49,106.91,106.91,0,0,0-2.8,22.43v8.19c.29,8.39,3.19,15.32,8.63,20.73a27.22,27.22,0,0,0,19.87,8.11,33.26,33.26,0,0,0,10.51-1.52,23.58,23.58,0,0,0,5.87-2.12l2.69-1.34,2.13-1.22-32.59,38.48-2.1.61-3.74.92a90.1,90.1,0,0,1-12.29,1.93c-2,.21-5,.3-8.9.3q-18,0-31.86-7.49a51.45,51.45,0,0,1-21.29-21.2q-7.43-13.73-7.41-31.59a104.1,104.1,0,0,1,2.39-20.47q4.89-21.53,15.26-37.77A96.89,96.89,0,0,1-2755.91,290q16.09-11.26,38.86-17.4t51.86-6.6c7.54,0,13.29.16,17.18.47"/><g class="cls-22"><rect class="cls-21" x="-4886.84" y="-1719.02" width="11689.57" height="7113.39"/></g><path class="cls-6" d="M-2329,1180.86c1.89-1.62,3.07-2.68,3.6-3.14q9.75-8.83,14.32-17.12a58.91,58.91,0,0,0,6.24-19.89l18.08-122.06a74.14,74.14,0,0,0,1.19-13.06c0-7.43-2.12-15.41-6.31-23.93-1-1.75-1.56-2.86-1.91-3.42h106.4a26,26,0,0,1,4.36.28q33.16,2.18,49.73,14.08t16.57,32.48q0,11.85-5.77,27.1a68.41,68.41,0,0,1-15.11,23.51,70.32,70.32,0,0,1-23.86,15.79,78.14,78.14,0,0,1-29.93,5.64q-23.37,0-36.35-7.06a45.67,45.67,0,0,0,5.23.54q15.69,0,29.58-14.75a43.3,43.3,0,0,0,8.93-12.77,51.3,51.3,0,0,0,3.91-15.8,62.28,62.28,0,0,0,.54-9.29q-.4-14.47-7.86-21c-5-4.36-13.17-6.56-24.53-6.56-1.63,0-4.16.2-7.6.54l-3.72.27-2.55.25-19,129.21a89.44,89.44,0,0,0-.78,11.18,46.14,46.14,0,0,0,2.32,13.35,45.52,45.52,0,0,0,7.21,12.51c.41.57.81,1,1.18,1.47a13.2,13.2,0,0,1,1.36,1.67Z"/><g class="cls-23"><rect class="cls-3" x="-3145.24" y="-589.99" width="9601.27" height="5842.61"/></g><path class="cls-6" d="M-2050,1181h-82.68a16.07,16.07,0,0,0,4.22-3c4.87-3.75,8.2-7.08,10-10s3.21-7.42,4.43-13.5c.33-1.26.63-2.52.88-3.72l10.77-68.07a141.2,141.2,0,0,0,1.79-16.74q0-7.44-2.5-11.9c-1.66-3-4.52-5.86-8.51-8.6,5.53.42,11.74.62,18.58.62a161.08,161.08,0,0,0,25.84-2.12,154.23,154.23,0,0,0,25.69-6.47l-3.2,20.51a44.11,44.11,0,0,1,17.1-13.27,55.26,55.26,0,0,1,22.76-4.67,63.09,63.09,0,0,1,10.49.91c.62.12,1.13.2,1.55.3a17.15,17.15,0,0,1,1.66.47l-6.8,43.56a30.84,30.84,0,0,0-6.66-4.48,36.69,36.69,0,0,0-17.82-5q-11,0-19.87,8.11a33.2,33.2,0,0,0-7.25,10.39c-1.4,3.42-2.65,8.62-3.75,15.65l-6.42,40.71-1.29,8.47a26.62,26.62,0,0,0,7.31,18.85c2.2,1.82,3.45,2.8,3.72,3"/><g class="cls-24"><rect class="cls-3" x="-3145.24" y="-589.99" width="9601.27" height="5842.61"/></g><path class="cls-6" d="M-1917.3,1180.86h-81.86a16.52,16.52,0,0,0,4.26-2.94c7.93-6.25,12.4-12.52,13.34-18.87l12.95-81.7c.71-5.65,1-9.23,1-10.78a24.88,24.88,0,0,0-1.52-9.36,25.67,25.67,0,0,0-5-7.43c-2.23-2-5.07-5.78-7.14-6.92,5.74.69,12.3,2.63,19.94,3.21a123.18,123.18,0,0,0,26.68-.84c10.58-1.52,17.27-3,26.45-7.85l-19.1,121.7a32.7,32.7,0,0,0,1.49,10.66,21.82,21.82,0,0,0,5,7.92,22.88,22.88,0,0,0,2.37,2.13c.72.55,1.1.88,1.1,1.07m-34.57-155.56a29.52,29.52,0,0,1-6.66-19,28.11,28.11,0,0,1,9.72-21.06,27.29,27.29,0,0,1,19.22-7.55q12.25,0,21.22,9.76a28,28,0,0,1,7.54,19.35,28.66,28.66,0,0,1-10.22,22.31q-8.83,7.19-18.54,7.18-13.33,0-22.28-11"/><g class="cls-25"><rect class="cls-3" x="-3140.23" y="-589.99" width="9601.27" height="5842.61"/></g><path class="cls-6" d="M-1772.59,1044.85c.87.24,2.06.62,3.52,1.16s2.81,1,4,1.39l-4.24,27.69c-5.69-5-13.12-8.46-22.29-10.52a69.77,69.77,0,0,0-15.13-1.69q-16.41,0-27.29,8.76t-15.44,25.64a48,48,0,0,0-1.47,11.48,35.44,35.44,0,0,0,10,25.2q10,10.57,27.67,13.6a44.15,44.15,0,0,0,7.77.5q10.62,0,26.68-4a165.89,165.89,0,0,0,26.45-8.88l-31.7,38.84c-3.26.71-6.68,1.45-10.24,2.19a190.06,190.06,0,0,1-37.94,4.25,140.12,140.12,0,0,1-17.8-1,61.52,61.52,0,0,1-27.87-10,57.12,57.12,0,0,1-18.85-20.72,58.4,58.4,0,0,1-6.69-27.93,74.66,74.66,0,0,1,5.25-26.95,80.81,80.81,0,0,1,19.32-28.89,88.64,88.64,0,0,1,30.58-19.13,106.5,106.5,0,0,1,38-6.7,126.56,126.56,0,0,1,37.69,5.72"/><g class="cls-26"><rect class="cls-3" x="-3137.72" y="-589.99" width="9601.27" height="5842.61"/></g><path class="cls-6" d="M-1589.3,1112.43a47.88,47.88,0,0,1-1.74,9.29h-102.4c.25,5.86,3.68,12,10.3,18.4q9.42,9.41,26.59,9.39,11.38,0,29.63-3.82,19.5-4.1,31.63-10.25l-30,39.08-6,.8q-23.89,4.79-36.67,5.16-19.71,0-34.37-3.87c-9.75-2.57-17.84-6.4-24.21-11.4a47.21,47.21,0,0,1-14.35-18.72c-3.17-7.43-4.9-16.11-5.12-26a69.93,69.93,0,0,1,5.36-26.15,85.24,85.24,0,0,1,15.7-24.9q5.49-5.88,10.54-10.33,25.2-19.63,59.86-20a110.68,110.68,0,0,1,12.62.77q26.81,2.93,40.33,17t13.53,39a143,143,0,0,1-1.2,16.54m-101.92-17.31h54.65a30.18,30.18,0,0,0,.5-4.59q0-13-5.84-19.69c-3.89-4.45-9.17-6.7-15.78-6.7a31,31,0,0,0-6.27.5q-13.63,2.49-22.48,17.2a48.46,48.46,0,0,0-4.79,13.28"/><g class="cls-27"><rect class="cls-3" x="-3132.7" y="-589.99" width="9601.27" height="5842.61"/></g><path class="cls-19" d="M-1455.05,1180.86h-143.8l95-109q-13.44,0-35.74,3.45a171.12,171.12,0,0,0-27.56,6.31l-1.79.77-2.56,1,25.36-38h128.68l-94.32,108.78,2.41.26,4.25.26h10.42c3.13,0,6.63,0,10.53-.07s6.76-.09,8.65-.18q18.55-1.39,28.45-3.91a75,75,0,0,0,18.54-7.36Z"/><g class="cls-28"><rect class="cls-21" x="-3142.74" y="-589.99" width="9601.27" height="5842.61"/></g><path class="cls-19" d="M-1303.87,1040.77q18.35,1.12,32.34,3.37a169.26,169.26,0,0,1,25.25,5.88l-.72.75-1.76,1.37a33.3,33.3,0,0,0-9.1,9.61,37.89,37.89,0,0,0-4.42,12.32l-9.38,60.15c0,4.32.8,7.27,2.5,8.86s4.78,2.36,9.25,2.36q1.86,0,7.83-.5a5.77,5.77,0,0,0,1.73-.24l-27.39,32.8a63.05,63.05,0,0,1-10.17,2.6,63.23,63.23,0,0,1-11.15,1.25,32.88,32.88,0,0,1-15.3-3.31,23.3,23.3,0,0,1-9.75-9,26,26,0,0,1-3.34-13.22,44.7,44.7,0,0,1,.5-5.36l12.14-76.74c-.48-.16-1-.39-1.6-.62a12.14,12.14,0,0,0-1.35-.52,47.38,47.38,0,0,0-13.94-2,34.85,34.85,0,0,0-17.22,4.38,41.53,41.53,0,0,0-13.9,13.2,43.77,43.77,0,0,0-5.72,13.54,87.81,87.81,0,0,0-2.3,18.42v6.72a24.29,24.29,0,0,0,7.09,17,22.35,22.35,0,0,0,16.32,6.66,27.31,27.31,0,0,0,8.63-1.25,19.36,19.36,0,0,0,4.82-1.74l2.21-1.1,1.75-1-26.77,31.6-1.73.5-3.08.75a74,74,0,0,1-10.09,1.59c-1.66.17-4.09.25-7.31.25q-14.76,0-26.17-6.15a42.26,42.26,0,0,1-17.49-17.42q-6.1-11.28-6.09-25.95a85.5,85.5,0,0,1,2-16.81,96.69,96.69,0,0,1,12.53-31,79.58,79.58,0,0,1,21.81-22.68q13.21-9.25,31.92-14.29t42.59-5.42c6.19,0,10.92.13,14.11.39"/><g class="cls-29"><rect class="cls-21" x="-3142.74" y="-589.99" width="9601.27" height="5842.61"/></g><path class="cls-6" d="M75.71,363c2.15-1.84,3.49-3,4.09-3.57Q90.86,349.41,96,340a66.87,66.87,0,0,0,7.09-22.58l20.52-138.56A84.16,84.16,0,0,0,125,164c0-8.43-2.41-17.49-7.16-27.16-1.08-2-1.77-3.25-2.17-3.88H236.46a29.51,29.51,0,0,1,4.95.32q37.64,2.47,56.45,16t18.81,36.87q0,13.45-6.54,30.76A77.66,77.66,0,0,1,293,243.62a79.82,79.82,0,0,1-27.09,17.93,88.7,88.7,0,0,1-34,6.41q-26.53,0-41.26-8a51.85,51.85,0,0,0,5.94.61q17.81,0,33.57-16.75a49.15,49.15,0,0,0,10.14-14.5,58.23,58.23,0,0,0,4.44-17.94,70.7,70.7,0,0,0,.61-10.54q-.45-16.42-8.92-23.88c-5.64-4.95-15-7.45-27.85-7.45-1.85,0-4.73.22-8.63.61l-4.22.31-2.9.28-21.6,146.68a101.52,101.52,0,0,0-.88,12.69A52.37,52.37,0,0,0,173,345.23a51.67,51.67,0,0,0,8.19,14.21c.47.64.92,1.16,1.34,1.67a15,15,0,0,1,1.55,1.9Z"/><g class="cls-30"><rect class="cls-3" x="-851" y="-1648" width="10902" height="6634"/><g class="cls-31"><rect class="cls-3" x="63" y="120" width="266" height="255"/></g></g><path class="cls-6" d="M393,363H298.64a18.24,18.24,0,0,0,4.79-3.37c5.53-4.26,9.31-8,11.3-11.4s3.64-8.43,5-15.33c.37-1.43.72-2.86,1-4.22L333,251.39c1.35-9.27,2-15.62,2-19q0-8.44-2.83-13.51c-1.88-3.42-5.13-6.66-9.67-9.76,6.28.47,13.33.7,21.09.7a182.89,182.89,0,0,0,29.34-2.4,175.12,175.12,0,0,0,29.17-7.34l-3.63,23.29a50.08,50.08,0,0,1,19.41-15.06,62.75,62.75,0,0,1,25.85-5.3,71.63,71.63,0,0,1,11.91,1c.71.13,1.28.22,1.76.34a19.47,19.47,0,0,1,1.89.54l-7.72,49.46a35,35,0,0,0-7.56-5.09c-6.92-3.82-13.64-5.7-20.24-5.7q-12.5,0-22.56,9.21a37.7,37.7,0,0,0-8.23,11.8c-1.59,3.89-3,9.79-4.26,17.77l-7.29,46.23L380,338.2a30.23,30.23,0,0,0,8.3,21.4c2.5,2.07,3.92,3.18,4.22,3.4"/><g class="cls-32"><rect class="cls-3" x="-851" y="-1648" width="10902" height="6634"/><g class="cls-31"><rect class="cls-3" x="286" y="187" width="186" height="188"/></g></g><path class="cls-6" d="M543,363H450.21a18.75,18.75,0,0,0,4.84-3.34c9-7.09,14.08-14.22,15.15-21.42l14.7-92.77c.81-6.41,1.17-10.48,1.17-12.24a28.25,28.25,0,0,0-1.73-10.63,29.15,29.15,0,0,0-5.69-8.44c-2.53-2.31-5.76-6.57-8.11-7.86,6.51.79,14,3,22.64,3.64a139.87,139.87,0,0,0,30.3-1c12-1.73,19.61-3.39,30-8.91L531.81,338.26a37.13,37.13,0,0,0,1.69,12.1,24.77,24.77,0,0,0,5.72,9,26,26,0,0,0,2.69,2.42c.82.63,1.25,1,1.25,1.22M503.9,185.91a33.52,33.52,0,0,1-7.56-21.53q.47-14.57,11-23.91a31,31,0,0,1,21.83-8.57q13.9,0,24.1,11.08a31.78,31.78,0,0,1,8.56,22q0,15-11.61,25.33-10,8.16-21.05,8.15-15.13,0-25.29-12.53"/><g class="cls-33"><rect class="cls-3" x="-846" y="-1648" width="10902" height="6634"/><g class="cls-34"><rect class="cls-3" x="438" y="119" width="137" height="256"/></g></g><path class="cls-6" d="M707.47,208.12c1,.28,2.34.71,4,1.32s3.19,1.13,4.56,1.58l-4.81,31.43c-6.46-5.65-14.9-9.6-25.31-11.94a79.22,79.22,0,0,0-17.18-1.92q-18.63,0-31,10t-17.53,29.11a54.53,54.53,0,0,0-1.67,13,40.24,40.24,0,0,0,11.33,28.61q11.33,12,31.42,15.44a50.13,50.13,0,0,0,8.82.57q12.06,0,30.29-4.6a188.36,188.36,0,0,0,30-10.09l-36,44.1c-3.7.8-7.58,1.65-11.63,2.48A215.8,215.8,0,0,1,639.73,362a159.1,159.1,0,0,1-20.21-1.13,69.85,69.85,0,0,1-31.64-11.32,64.86,64.86,0,0,1-21.41-23.53,66.3,66.3,0,0,1-7.6-31.71,84.78,84.78,0,0,1,6-30.6A91.76,91.76,0,0,1,586.76,231a100.65,100.65,0,0,1,34.72-21.72,120.92,120.92,0,0,1,43.2-7.6,143.7,143.7,0,0,1,42.79,6.49"/><g class="cls-35"><rect class="cls-3" x="-843" y="-1648" width="10902" height="6634"/><g class="cls-36"><rect class="cls-3" x="546" y="189" width="197" height="186"/></g></g><path class="cls-6" d="M915.58,284.45a54.36,54.36,0,0,1-2,10.55H797.33c.28,6.66,4.17,13.59,11.69,20.89q10.69,10.68,30.2,10.66,12.92,0,33.64-4.33,22.14-4.65,35.92-11.63L874.68,355l-6.8.91q-27.13,5.44-41.63,5.86-22.38,0-39-4.39c-11.07-2.92-20.26-7.27-27.49-12.94a53.6,53.6,0,0,1-16.3-21.25c-3.6-8.44-5.56-18.3-5.82-29.53a79.4,79.4,0,0,1,6.09-29.69,96.78,96.78,0,0,1,17.82-28.27q6.23-6.67,12-11.73,28.61-22.29,68-22.69a125.67,125.67,0,0,1,14.33.88q30.44,3.33,45.79,19.27t15.36,44.3a162.4,162.4,0,0,1-1.36,18.78M800,265h61.9a34.26,34.26,0,0,0,.57-5.21q0-14.74-6.63-22.35c-4.41-5.06-10.41-7.61-17.91-7.61a35.16,35.16,0,0,0-7.12.57q-15.47,2.82-25.52,19.53A55,55,0,0,0,799.85,265"/><g class="cls-37"><rect class="cls-3" x="-837" y="-1648" width="10902" height="6634"/><g class="cls-38"><rect class="cls-3" x="725" y="189" width="205" height="186"/></g></g><path class="cls-39" d="M1068.07,363H904.67l107.94-123.93q-15.28,0-40.62,3.92c-12.52,2-23,4.34-31.33,7.17l-2,.87-2.91,1.18L964.55,209h146.06l-107,123.41,2.73.3,4.82.29h11.46c3.58,0,7.59,0,12.06-.08s7.74-.1,9.91-.21q21.25-1.59,32.59-4.48a85.86,85.86,0,0,0,21.24-8.43Z"/><g class="cls-40"><rect class="cls-5" x="-848" y="-1648" width="10902" height="6634"/><g class="cls-41"><rect class="cls-5" x="892" y="196" width="231" height="179"/></g></g><path class="cls-39" d="M1240.09,203.47q20.84,1.27,36.72,3.83a192.18,192.18,0,0,1,28.67,6.67l-.82.85-2,1.55a37.81,37.81,0,0,0-10.34,10.91,43,43,0,0,0-5,14l-10.66,68.3c0,4.9.91,8.25,2.84,10.06s5.43,2.68,10.5,2.68q2.12,0,8.89-.57a6.55,6.55,0,0,0,2-.28l-31.1,37.25a88.65,88.65,0,0,1-24.21,4.37c-6.76,0-12.57-1.26-17.37-3.75a26.46,26.46,0,0,1-11.07-10.24,29.53,29.53,0,0,1-3.79-15,50.76,50.76,0,0,1,.56-6.09l13.78-87.13c-.55-.18-1.15-.44-1.82-.7a13.78,13.78,0,0,0-1.54-.59,53.79,53.79,0,0,0-15.83-2.26,39.57,39.57,0,0,0-19.55,5q-8.91,4.94-15.78,15a49.7,49.7,0,0,0-6.5,15.38,99.7,99.7,0,0,0-2.61,20.91v7.63c.27,7.83,3,14.29,8,19.34a25.38,25.38,0,0,0,18.53,7.56,31,31,0,0,0,9.8-1.42,22,22,0,0,0,5.48-2l2.51-1.25,2-1.14-30.4,35.88-2,.57-3.49.85a84,84,0,0,1-11.46,1.8c-1.88.2-4.64.28-8.3.28q-16.76,0-29.71-7a48,48,0,0,1-19.86-19.78q-6.92-12.8-6.91-29.46a97.08,97.08,0,0,1,2.23-19.09,109.78,109.78,0,0,1,14.23-35.22,90.35,90.35,0,0,1,24.76-25.76q15-10.5,36.24-16.23t48.36-6.16c7,0,12.39.15,16,.44"/><g class="cls-42"><rect class="cls-5" x="-848" y="-1648" width="10902" height="6634"/><g class="cls-41"><rect class="cls-5" x="1085" y="191" width="232" height="185"/></g></g><path class="cls-5" d="M1462.91,356.9l14.84-157.45c.24-3.89,2.68-6.08,6.57-6.08H1495c3.65,0,6.08,1.46,7.54,5.11l59.62,138,59.62-138c1.46-3.65,3.89-5.11,7.54-5.11h10.71c3.89,0,6.33,2.19,6.57,6.08l14.84,157.45c.24,4.38-1.95,6.81-6.33,6.81h-6.08c-4.14,0-6.57-2.19-7.06-6.08l-11.92-136.27-58.4,135.06c-1.46,3.41-3.65,5.11-7.3,5.11H1560c-3.65,0-6.08-1.7-7.54-5.11L1494.3,221.35l-11.92,136.27c-.49,3.89-2.92,6.08-7.06,6.08h-6.08C1464.86,363.71,1462.67,361.28,1462.91,356.9Z"/><path class="cls-5" d="M1687.77,303.12c0-34.8,28.71-63.51,63.51-63.51,35.29,0,64,29,64,63.51,0,35-28.71,63.27-64,63.27A63.35,63.35,0,0,1,1687.77,303.12Zm108.78.24c0-25.79-20.2-47.21-45.26-47.21-24.58,0-44.78,21.41-44.78,47.21s20.2,46.48,44.78,46.48C1776.34,349.84,1796.54,328.91,1796.54,303.36Z"/><path class="cls-5" d="M1845,357.14V248.85c0-3.89,2.43-6.57,6.33-6.57h5.6c4.14,0,6.57,2.43,6.57,6.57v19.22c6.57-19.22,24.33-28.47,42.34-28.47,25.79,0,48.18,15.09,48.18,55.24v62.3c0,4.14-2.43,6.57-6.57,6.57h-5.6c-4.14,0-6.57-2.43-6.57-6.57v-62.3c0-29.45-15.33-38.69-30.66-38.69-13.38,0-40.88,9.49-41.13,48.67v52.32c0,4.14-2.43,6.57-6.57,6.57h-5.6C1847.4,363.71,1845,361.28,1845,357.14Z"/><path class="cls-5" d="M1982,303.6c0-35.29,27.5-64,65-64,29.69,0,57.43,17.76,60.59,56.7.73,4.14-1.95,6.57-6.33,6.57h-100.5c-1.7,27,19.47,47,49.4,47a58.85,58.85,0,0,0,36.5-12.17c3.16-2.19,6.33-1.95,9,.73l1.95,1.95c2.68,2.92,2.68,6.81-1.46,10.22-14.11,11.92-30.66,15.82-46,15.82C2008.25,366.39,1982,337.91,1982,303.6Zm106.83-15.09c-5.6-25.06-24.58-32.37-41.37-32.37-19,0-38,10-45,32.37Z"/><path class="cls-5" d="M2149.64,410.67l19.22-48.91-48.67-111.7c-1.7-4.62.24-7.79,5.11-7.79h7.54a7.11,7.11,0,0,1,7.3,5.11l38.94,93.2,36.5-93a7.33,7.33,0,0,1,7.54-5.35h7.79c4.87,0,7.06,2.92,5.11,7.79l-69.11,163c-1.46,3.65-3.89,5.11-7.54,5.11h-4.62C2149.88,418.22,2147.93,415.3,2149.64,410.67Z"/><rect class="cls-5" x="1387.15" y="126" width="5.7" height="291"/></svg>