<svg xmlns="http://www.w3.org/2000/svg" xmlns:xlink="http://www.w3.org/1999/xlink" width="206" height="28" viewBox="0 0 206 28">
    <defs>
        <path id="prefix__a" d="M15.35.09H3.866c.038.06.104.179.207.368.451.915.68 1.773.68 2.571-.002.472-.046.942-.132 1.406L2.671 17.55c-.096.747-.324 1.47-.675 2.138-.325.594-.839 1.207-1.54 1.839-.057.054-.184.164-.389.338H10.37c-.044-.063-.093-.123-.147-.18-.04-.047-.083-.097-.127-.157-.33-.404-.593-.858-.78-1.345-.154-.463-.239-.947-.251-1.434.003-.402.03-.803.084-1.201l2.053-13.884.276-.026.401-.03c.37-.037.644-.058.82-.058 1.222 0 2.112.237 2.648.705.537.471.82 1.225.848 2.26.006.334-.014.668-.058.998-.049.585-.191 1.159-.422 1.699-.235.512-.562.976-.964 1.372-.999 1.057-2.063 1.585-3.191 1.585-.19-.008-.378-.027-.565-.057.933.505 2.241.757 3.923.757 1.106.011 2.205-.195 3.232-.607.966-.384 1.843-.961 2.575-1.697.712-.722 1.267-1.583 1.629-2.528.414-1.092.622-2.063.622-2.912 0-1.472-.597-2.636-1.789-3.49C19.995.783 18.207.278 15.82.122c-.138-.02-.278-.03-.418-.03h-.052z"/>
        <path id="prefix__c" d="M15.35.09H3.866c.038.06.104.179.207.368.451.916.68 1.773.68 2.571-.002.472-.046.942-.132 1.407L2.671 17.55c-.096.746-.324 1.47-.675 2.137-.325.594-.839 1.207-1.54 1.839-.057.054-.184.164-.389.338H10.37c-.044-.063-.093-.123-.147-.18-.04-.047-.083-.097-.127-.157-.33-.404-.593-.858-.78-1.345-.154-.463-.239-.947-.251-1.434.003-.402.03-.803.083-1.201l2.054-13.884.276-.026.401-.03c.37-.037.644-.058.82-.058 1.222 0 2.112.237 2.648.706.537.47.82 1.224.848 2.26.006.333-.014.667-.058.997-.049.585-.191 1.159-.422 1.699-.235.512-.562.976-.964 1.372-.999 1.057-2.063 1.586-3.192 1.586-.189-.009-.377-.028-.564-.058.933.505 2.24.757 3.923.757 1.106.011 2.205-.195 3.232-.606.966-.385 1.843-.962 2.575-1.698.712-.722 1.266-1.583 1.629-2.528.414-1.092.621-2.063.621-2.912 0-1.472-.596-2.636-1.788-3.49C19.995.783 18.207.278 15.82.122c-.138-.02-.278-.03-.418-.03h-.052z"/>
        <path id="prefix__e" d="M7.123.702C6.202.852 5.27.928 4.334.93 3.596.93 2.926.908 2.33.863c.432.294.74.6.92.924.179.32.269.746.269 1.279 0 .32-.062.92-.19 1.798L2.16 12.18c-.027.129-.06.264-.095.4-.13.653-.286 1.129-.475 1.45-.19.322-.549.676-1.075 1.08-.133.13-.287.237-.455.318h8.97-.045c-.028-.02-.164-.125-.401-.321-.52-.546-.804-1.274-.79-2.026l.137-.911.693-4.376c.12-.756.254-1.314.405-1.682.186-.419.452-.798.782-1.117.638-.581 1.353-.872 2.145-.872.627 0 1.266.178 1.924.54.26.128.502.29.719.481l.734-4.681c-.06-.02-.12-.037-.18-.051-.046-.012-.1-.02-.167-.032-.374-.063-.753-.095-1.132-.095-.846-.008-1.684.163-2.458.502-.725.315-1.359.805-1.845 1.425L9.897.008c-.903.31-1.83.542-2.774.694z"/>
        <path id="prefix__g" d="M7.124.702c-.922.15-1.855.226-2.79.227C3.596.93 2.926.908 2.33.863c.432.294.741.6.92.924.179.32.269.746.269 1.279 0 .32-.062.92-.19 1.798L2.16 12.18c-.027.129-.06.264-.095.4-.13.653-.286 1.129-.476 1.45-.189.322-.548.676-1.074 1.08-.134.13-.287.237-.455.318h8.97-.045c-.028-.02-.164-.126-.401-.321-.52-.546-.804-1.274-.79-2.026l.137-.911.693-4.376c.12-.756.254-1.314.405-1.682.186-.419.452-.798.782-1.117.638-.581 1.353-.872 2.145-.872.628 0 1.266.178 1.924.54.26.128.501.29.72.481l.733-4.681c-.06-.02-.119-.037-.18-.051-.046-.011-.1-.02-.167-.032-.374-.063-.753-.095-1.132-.095-.846-.008-1.684.163-2.458.502-.725.315-1.359.805-1.845 1.425L9.897.008c-.903.31-1.83.542-2.773.694z"/>
        <path id="prefix__i" d="M5.451.896c-.667.59-1.016 1.344-1.045 2.263-.008.743.247 1.464.718 2.038l-.002.002c.644.791 1.446 1.186 2.405 1.186.7 0 1.367-.256 2-.771.737-.652 1.105-1.451 1.105-2.398.007-.772-.284-1.518-.814-2.082C9.17.434 8.408.085 7.527.085h-.041C6.729.085 6 .375 5.45.896zm1.535 6.481c-.954.136-1.92.167-2.881.095-.821-.06-1.533-.27-2.152-.345.223.122.53.526.77.744.227.233.41.503.542.8.119.321.175.663.164 1.005 0 .167-.034.552-.111 1.159l-1.398 8.78c-.101.683-.584 1.357-1.44 2.028-.136.13-.291.236-.46.316h8.837c0-.02-.041-.055-.119-.115-.09-.07-.176-.147-.256-.229-.241-.241-.427-.532-.544-.852-.116-.37-.17-.757-.16-1.145l2.06-13.084c-.988.522-1.711.68-2.852.843z"/>
        <path id="prefix__k" d="M5.451.897c-.667.589-1.016 1.343-1.045 2.263-.008.741.247 1.463.718 2.037l-.002.002c.644.791 1.446 1.186 2.405 1.186.7 0 1.367-.256 2-.771.737-.652 1.105-1.451 1.105-2.398.007-.772-.284-1.518-.814-2.082C9.17.434 8.408.085 7.527.085h-.041C6.729.085 6 .375 5.45.897zm1.535 6.48c-.954.136-1.92.167-2.88.095-.822-.06-1.534-.27-2.153-.345.223.123.53.526.77.744.227.233.41.503.542.8.119.32.175.663.164 1.005 0 .167-.034.552-.111 1.159l-1.398 8.78c-.101.682-.584 1.357-1.44 2.028-.136.13-.291.236-.46.316h8.837c0-.02-.041-.055-.12-.115-.09-.07-.175-.147-.255-.229-.241-.241-.427-.532-.544-.852-.116-.37-.17-.757-.16-1.145l2.06-13.084c-.988.522-1.711.68-2.852.843z"/>
        <path id="prefix__m" d="M6.035.784c-1.23.453-2.354 1.152-3.3 2.056-.911.87-1.621 1.926-2.082 3.096-.368.922-.562 1.904-.57 2.896-.014 1.045.234 2.076.722 3.001.482.9 1.182 1.665 2.036 2.228.9.595 1.932.963 3.008 1.071.637.076 1.279.112 1.921.107 1.375-.014 2.746-.166 4.09-.453.386-.079.755-.16 1.106-.235l3.423-4.174c-.922.397-1.876.717-2.852.955-1.155.29-2.115.435-2.88.435-.28.007-.561-.011-.838-.054-1.273-.217-2.27-.704-2.987-1.461-.705-.725-1.093-1.7-1.077-2.708.003-.415.056-.828.158-1.23.327-1.207.883-2.125 1.667-2.756.784-.631 1.766-.947 2.947-.947.55.002 1.097.063 1.633.182.99.222 1.793.595 2.407 1.13l.457-2.975c-.13-.042-.276-.091-.434-.15-.157-.057-.285-.097-.38-.124V.68C12.893.27 11.522.063 10.142.064h-.096c-1.369 0-2.728.244-4.01.72z"/>
        <path id="prefix__o" d="M6.035.784c-1.23.452-2.353 1.152-3.3 2.055-.911.87-1.621 1.927-2.082 3.097-.368.922-.562 1.904-.57 2.896-.014 1.045.234 2.077.722 3.001.483.9 1.182 1.665 2.036 2.228.9.595 1.932.963 3.008 1.071.637.076 1.28.112 1.921.107 1.375-.014 2.746-.166 4.09-.453.386-.079.755-.159 1.106-.235l3.423-4.174c-.922.397-1.876.717-2.852.955-1.155.29-2.115.435-2.88.435-.28.007-.561-.011-.838-.054-1.273-.217-2.269-.704-2.987-1.461-.705-.725-1.093-1.7-1.077-2.708.003-.415.056-.828.158-1.23.327-1.207.883-2.125 1.667-2.756.784-.631 1.766-.947 2.947-.947.55.002 1.097.063 1.633.182.99.222 1.792.596 2.407 1.13l.457-2.975c-.13-.042-.276-.091-.434-.15-.158-.057-.285-.097-.38-.124V.68C12.893.27 11.521.064 10.142.065h-.096c-1.369 0-2.727.243-4.01.719z"/>
        <path id="prefix__q" d="M3.475 2.174c-.366.32-.746.69-1.141 1.11-.716.788-1.29 1.693-1.694 2.676-.373.891-.57 1.846-.58 2.81.025 1.064.212 1.997.554 2.796.337.79.87 1.482 1.55 2.011.687.537 1.56.948 2.613 1.225 1.054.277 2.29.415 3.708.415.919-.026 2.238-.211 3.958-.554l.646-.086 3.242-4.204c-.873.44-2.011.807-3.415 1.1-1.313.274-2.379.41-3.198.41-1.236.002-2.194-.334-2.871-1.008-.715-.691-1.085-1.347-1.111-1.978h11.052c.096-.325.16-.66.19-.998l.008.005c.078-.59.12-1.183.13-1.777-.001-1.79-.488-3.187-1.46-4.193C14.681.928 13.23.32 11.301.11 10.85.056 10.395.028 9.94.027c-2.497.025-4.652.74-6.465 2.147zm3.017 2.457c.637-1.054 1.446-1.67 2.427-1.848.223-.04.45-.06.677-.054.712 0 1.283.241 1.702.72.42.48.63 1.185.63 2.116-.005.165-.023.33-.054.493H5.975c.102-.498.276-.979.517-1.427z"/>
    </defs>
    <g fill="none" fill-rule="evenodd">
        <path fill="#FFA400" d="M.067 22.433c.205-.174.332-.284.39-.338.7-.633 1.214-1.246 1.54-1.84.35-.666.578-1.39.674-2.137L4.62 5.003c.086-.464.13-.934.132-1.406 0-.798-.229-1.656-.68-2.571-.103-.19-.168-.308-.207-.367H15.35c.157-.003.315.007.47.03 2.386.156 4.175.66 5.367 1.515 1.192.853 1.789 2.017 1.789 3.49 0 .848-.208 1.819-.622 2.91-.363.946-.917 1.807-1.629 2.529-.732.736-1.609 1.313-2.575 1.697-1.027.412-2.126.618-3.233.607-1.681 0-2.989-.253-3.922-.757.187.03.375.049.565.057 1.128 0 2.192-.528 3.191-1.585.402-.396.729-.86.964-1.372.23-.54.373-1.114.422-1.699.044-.33.064-.664.058-.997-.028-1.036-.311-1.79-.848-2.26-.536-.469-1.426-.706-2.648-.706-.175 0-.45.021-.82.058l-.401.03-.276.026L9.15 18.116c-.053.398-.081.799-.084 1.2.013.488.097.972.252 1.435.186.486.449.94.778 1.345.045.06.088.11.128.158.054.056.103.116.147.18L.067 22.433z"/>
        <g transform="translate(0 .568)">
            <mask id="prefix__b" fill="#fff">
                <use xlink:href="#prefix__a"/>
            </mask>
            <path fill="#FFA400" d="M-88.035 459.444L948.418 459.444 948.418 -168.482 -88.035 -168.482z" mask="url(#prefix__b)"/>
        </g>
        <g transform="translate(0 .568)">
            <mask id="prefix__d" fill="#fff">
                <use xlink:href="#prefix__c"/>
            </mask>
            <path fill="#FFA400" d="M-1.141 23.001L24.148 23.001 24.148 -1.136 -1.141 -1.136z" mask="url(#prefix__d)"/>
        </g>
        <path fill="#FFA400" d="M30.232 22.433h-8.97c.168-.082.321-.19.455-.32.526-.403.885-.757 1.074-1.078.19-.322.346-.798.475-1.451.036-.136.069-.271.096-.4l1.166-7.315c.128-.878.19-1.479.19-1.799 0-.533-.09-.959-.269-1.279-.179-.323-.488-.63-.92-.923.598.044 1.268.066 2.006.066.934-.001 1.867-.077 2.79-.227.942-.152 1.87-.385 2.772-.695l-.345 2.204c.487-.62 1.121-1.11 1.846-1.425.774-.339 1.611-.51 2.457-.502.38 0 .758.032 1.132.095.068.012.122.02.168.032.06.014.12.031.18.051L35.8 12.15c-.217-.191-.459-.353-.718-.482-.658-.362-1.297-.54-1.924-.54-.793 0-1.508.291-2.145.872-.33.319-.596.698-.783 1.117-.15.368-.285.927-.405 1.682l-.693 4.376-.136.911c-.014.753.27 1.48.79 2.026.237.196.372.3.4.322"/>
        <g transform="translate(21.2 7.004)">
            <mask id="prefix__f" fill="#fff">
                <use xlink:href="#prefix__e"/>
            </mask>
            <path fill="#FFA400" d="M-109.235 453.008L927.217 453.008 927.217 -174.918 -109.235 -174.918z" mask="url(#prefix__f)"/>
        </g>
        <g transform="translate(21.2 7.004)">
            <mask id="prefix__h" fill="#fff">
                <use xlink:href="#prefix__g"/>
            </mask>
            <path fill="#FFA400" d="M-1.141 16.564L16.542 16.564 16.542 -1.23 -1.141 -1.23z" mask="url(#prefix__h)"/>
        </g>
        <path fill="#FFA400" d="M40.775 5.67c-.471-.574-.725-1.295-.718-2.037.03-.92.378-1.674 1.046-2.263.558-.53 1.303-.822 2.075-.812.88 0 1.645.35 2.291 1.05.53.564.821 1.31.814 2.082 0 .946-.368 1.745-1.104 2.397-.634.515-1.3.772-2.001.772-.959 0-1.76-.396-2.404-1.186m3.719 16.76H35.67c.17-.08.325-.188.46-.316.856-.672 1.339-1.346 1.44-2.028l1.398-8.78c.077-.608.111-.993.111-1.16.01-.342-.045-.684-.164-1.006-.132-.295-.315-.566-.541-.798-.24-.219-.548-.622-.771-.744.619.074 1.33.284 2.152.344.961.073 1.927.04 2.881-.094 1.14-.164 1.864-.321 2.852-.844l-2.06 13.084c-.01.388.044.775.16 1.145.118.32.303.61.544.852.08.082.166.159.256.23.078.059.119.094.119.115"/>
        <g transform="translate(35.651 .473)">
            <mask id="prefix__j" fill="#fff">
                <use xlink:href="#prefix__i"/>
            </mask>
            <path fill="#FFA400" d="M-123.211 459.539L913.242 459.539 913.242 -168.387 -123.211 -168.387z" mask="url(#prefix__j)"/>
        </g>
        <g transform="translate(35.651 .473)">
            <mask id="prefix__l" fill="#fff">
                <use xlink:href="#prefix__k"/>
            </mask>
            <path fill="#FFA400" d="M-1.141 23.095L11.884 23.095 11.884 -1.136 -1.141 -1.136z" mask="url(#prefix__l)"/>
        </g>
        <path fill="#FFA400" d="M60.129 7.773c.095.026.222.067.38.125.158.058.303.107.434.15l-.458 2.974c-.614-.534-1.416-.908-2.406-1.13-.536-.12-1.084-.18-1.633-.182-1.18 0-2.163.316-2.947.947-.784.631-1.34 1.55-1.667 2.755-.102.403-.156.816-.159 1.23-.015 1.01.372 1.984 1.077 2.709.719.757 1.714 1.244 2.988 1.461.277.043.558.06.838.054.764 0 1.724-.145 2.88-.435.976-.238 1.93-.558 2.852-.955l-3.423 4.174c-.351.076-.72.156-1.105.235-1.345.287-2.716.439-4.091.453-.642.005-1.284-.03-1.922-.107-1.075-.108-2.107-.476-3.008-1.071-.853-.563-1.553-1.328-2.035-2.228-.488-.925-.736-1.956-.723-3.001.01-.992.202-1.974.57-2.896.461-1.17 1.171-2.226 2.082-3.096.947-.904 2.07-1.603 3.3-2.056 1.314-.487 2.706-.731 4.108-.72 1.38 0 2.75.207 4.068.615"/>
        <g transform="translate(45.919 7.099)">
            <mask id="prefix__n" fill="#fff">
                <use xlink:href="#prefix__m"/>
            </mask>
            <path fill="#FFA400" d="M-133.193 452.913L903.259 452.913 903.259 -175.013 -133.193 -175.013z" mask="url(#prefix__n)"/>
        </g>
        <g transform="translate(45.919 7.099)">
            <mask id="prefix__p" fill="#fff">
                <use xlink:href="#prefix__o"/>
            </mask>
            <path fill="#FFA400" d="M-1.141 16.47L17.588 16.47 17.588 -1.136 -1.141 -1.136z" mask="url(#prefix__p)"/>
        </g>
        <path fill="#FFA400" d="M68.926 13.157h5.885c.03-.163.048-.328.054-.493 0-.93-.21-1.636-.63-2.116-.42-.479-.99-.72-1.703-.72-.227-.005-.454.013-.677.054-.98.178-1.79.794-2.426 1.848-.242.448-.416.929-.518 1.427m11.003 1.84c-.03.339-.094.674-.19 1H68.672c.026.63.396 1.286 1.111 1.977.678.674 1.635 1.01 2.871 1.009.82 0 1.885-.137 3.198-.41 1.404-.294 2.542-.66 3.415-1.101l-3.241 4.203-.647.087c-1.72.343-3.039.528-3.958.554-1.418 0-2.654-.138-3.707-.415-1.053-.277-1.927-.688-2.614-1.225-.68-.53-1.212-1.221-1.55-2.011-.342-.8-.528-1.733-.553-2.796.01-.965.207-1.919.58-2.81.404-.983.977-1.888 1.693-2.676.395-.42.775-.79 1.141-1.11 1.813-1.406 3.968-2.122 6.465-2.148.455.002.91.03 1.362.084 1.93.21 3.38.818 4.353 1.824.973 1.006 1.46 2.403 1.46 4.193-.008.594-.051 1.188-.129 1.777"/>
        <g transform="translate(62.936 7.099)">
            <mask id="prefix__r" fill="#fff">
                <use xlink:href="#prefix__q"/>
            </mask>
            <path fill="#FFA400" d="M-149.64 452.913L886.812 452.913 886.812 -175.013 -149.64 -175.013z" mask="url(#prefix__r)"/>
            <path fill="#FFA400" d="M-1.141 16.47L18.348 16.47 18.348 -1.136 -1.141 -1.136z" mask="url(#prefix__r)"/>
        </g>
        <path fill="#131E29" d="M94.411 22.433H78.877l10.261-11.73c-.968 0-2.255.123-3.861.37-1.19.19-2.187.411-2.979.68l-.19.081-.277.112 2.738-4.09h13.886L88.283 19.537l.26.029.458.027h1.09c.34 0 .72 0 1.146-.007.425-.008.736-.01.942-.02 1.347-.1 2.38-.242 3.098-.424.706-.176 1.385-.444 2.02-.798l-2.886 4.089z"/>
        <path fill="#131E29" d="M110.765 7.333c1.32.08 2.485.2 3.491.362.923.141 1.835.352 2.726.632l-.078.08-.19.147c-.394.275-.729.626-.983 1.032-.235.411-.396.86-.476 1.326l-1.013 6.464c0 .464.086.781.27.952.183.172.516.254.998.254.134 0 .416-.018.845-.054.065.001.129-.008.19-.026l-2.956 3.526c-.745.243-1.52.382-2.302.413-.643 0-1.195-.119-1.651-.355-.438-.214-.804-.551-1.053-.97-.244-.432-.369-.922-.36-1.419.006-.193.024-.385.053-.576l1.31-8.247c-.052-.017-.11-.042-.173-.067-.048-.021-.096-.04-.146-.055-.488-.146-.996-.218-1.505-.214-.65-.005-1.29.158-1.859.473-.565.312-1.065.785-1.5 1.42-.287.447-.496.94-.618 1.456-.153.649-.236 1.312-.248 1.979v.722c.026.741.285 1.352.76 1.83.464.47 1.101.728 1.762.716.316.005.63-.04.932-.134.181-.04.356-.104.52-.19l.24-.118.19-.108-2.89 3.396-.19.054-.333.08c-.358.082-.722.14-1.09.171-.178.019-.44.027-.788.027-1.062 0-2.004-.221-2.825-.663-.802-.423-1.46-1.075-1.888-1.872-.438-.808-.657-1.737-.657-2.789.01-.608.082-1.213.212-1.807.253-1.18.711-2.309 1.353-3.333.614-.961 1.414-1.79 2.354-2.439.95-.662 2.1-1.174 3.445-1.536 1.347-.361 2.88-.556 4.598-.583.665 0 1.178.014 1.521.042M131.949 21.855l1.41-14.903c.023-.368.255-.575.625-.575h1.015c.347 0 .578.138.717.483l5.668 13.063 5.668-13.063c.14-.345.37-.483.717-.483h1.018c.37 0 .602.207.625.575l1.41 14.903c.024.415-.185.645-.601.645h-.578c-.394 0-.625-.207-.671-.576l-1.133-12.898-5.553 12.784c-.138.323-.347.484-.694.484h-.413c-.347 0-.578-.161-.717-.484l-5.53-12.785-1.132 12.898c-.047.369-.278.576-.672.576h-.578c-.416 0-.624-.23-.601-.644M163.668 16.788c0-2.441-1.92-4.469-4.303-4.469-2.337 0-4.257 2.027-4.257 4.469s1.92 4.399 4.257 4.399c2.381 0 4.302-1.981 4.302-4.4zm-10.342-.023c0-3.294 2.73-6.011 6.038-6.011 3.355 0 6.084 2.744 6.084 6.01 0 3.314-2.73 5.99-6.084 5.99-3.326.008-6.03-2.67-6.038-5.982v-.007zM168.274 21.878v-10.25c0-.368.23-.622.602-.622h.532c.394 0 .625.23.625.622v1.82c.624-1.82 2.313-2.695 4.025-2.695 2.452 0 4.58 1.428 4.58 5.228v5.897c0 .392-.23.622-.624.622h-.533c-.393 0-.624-.23-.624-.622v-5.897c0-2.787-1.458-3.662-2.915-3.662-1.272 0-3.887.898-3.91 4.607v4.952c0 .392-.231.622-.625.622h-.532c-.373 0-.601-.23-.601-.622M191.455 15.382c-.533-2.372-2.337-3.064-3.933-3.064-1.807 0-3.613.947-4.278 3.064h8.21zm-10.157 1.428c0-3.34 2.615-6.057 6.18-6.057 2.822 0 5.46 1.68 5.76 5.366.07.392-.185.622-.602.622h-9.554c-.162 2.556 1.85 4.449 4.696 4.449 1.254.014 2.476-.392 3.47-1.152.3-.207.602-.185.856.07l.185.184c.255.276.255.644-.138.967-1.342 1.128-2.915 1.497-4.374 1.497-3.983-.002-6.479-2.698-6.479-5.946zM197.236 26.945l1.827-4.63-4.627-10.572c-.161-.438.023-.738.486-.738h.717c.316-.02.605.18.694.484l3.702 8.822 3.47-8.803c.088-.317.387-.528.717-.507h.74c.463 0 .671.277.486.738l-6.57 15.428c-.139.346-.37.484-.717.484h-.44c-.462.008-.648-.268-.485-.706M124.746 27.544L125.698 27.544 125.698 0 124.746 0z"/>
    </g>
</svg>
